<svg width="839" height="461" viewBox="0 0 839 461" fill="none" xmlns="http://www.w3.org/2000/svg">
<rect x="2.5" y="2.5" width="834" height="456" rx="17.5" fill="url(#paint0_linear_316_63)" stroke="#2C2C2C" stroke-width="5"/>
<g filter="url(#filter0_d_316_63)">
<rect x="51" y="102" width="258" height="258" rx="20" fill="url(#paint1_linear_316_63)"/>
</g>
<path d="M180 223C200 223 217 219.867 231 213.6C245 207.333 252 199.8 252 191C252 182.2 245 174.667 231 168.4C217 162.133 200 159 180 159C160 159 143 162.133 129 168.4C115 174.667 108 182.2 108 191C108 199.8 115 207.333 129 213.6C143 219.867 160 223 180 223ZM180 243C185.467 243 192.301 242.432 200.504 241.296C208.707 240.16 216.605 238.328 224.2 235.8C231.8 233.267 238.333 229.968 243.8 225.904C249.267 221.84 252 216.872 252 211V231C252 236.867 249.267 241.835 243.8 245.904C238.333 249.973 231.8 253.272 224.2 255.8C216.6 258.333 208.701 260.168 200.504 261.304C192.307 262.44 185.472 263.005 180 263C174.533 263 167.699 262.432 159.496 261.296C151.293 260.16 143.397 258.328 135.808 255.8C128.208 253.267 121.675 249.968 116.208 245.904C110.741 241.84 108.005 236.872 108 231V211C108 216.867 110.733 221.835 116.2 225.904C121.667 229.973 128.2 233.272 135.8 235.8C143.4 238.333 151.301 240.168 159.504 241.304C167.707 242.44 174.539 243.005 180 243ZM180 283C185.467 283 192.301 282.432 200.504 281.296C208.707 280.16 216.605 278.328 224.2 275.8C231.8 273.267 238.333 269.965 243.8 265.896C249.267 261.827 252 256.861 252 251V271C252 276.867 249.267 281.835 243.8 285.904C238.333 289.973 231.8 293.272 224.2 295.8C216.6 298.333 208.701 300.168 200.504 301.304C192.307 302.44 185.472 303.005 180 303C174.533 303 167.699 302.432 159.496 301.296C151.293 300.16 143.397 298.328 135.808 295.8C128.208 293.267 121.675 289.965 116.208 285.896C110.741 281.827 108.005 276.861 108 271V251C108 256.867 110.733 261.835 116.2 265.904C121.667 269.973 128.2 273.272 135.8 275.8C143.4 278.333 151.301 280.168 159.504 281.304C167.707 282.44 174.539 283.005 180 283Z" fill="url(#paint2_linear_316_63)"/>
<path d="M453.053 226C443.83 218 431.865 213 418.654 213C395.472 213 375.88 228.15 369 249.1L380.765 253C383.391 245 388.467 238.035 395.27 233.097C402.073 228.159 410.256 225.501 418.654 225.5C428.375 225.5 437.249 229.1 444.179 234.9L426.132 253H471V208L453.053 226Z" fill="url(#paint3_linear_316_63)"/>
<g filter="url(#filter1_d_316_63)">
<rect x="531" y="102" width="258" height="258" rx="20" fill="url(#paint4_linear_316_63)"/>
</g>
<mask id="path-6-inside-1_316_63" fill="white">
<path d="M609.333 303H709.666C713.468 303 717.114 301.49 719.802 298.802C722.49 296.114 724 292.468 724 288.667V199.084L684.583 159.667H623.666C619.865 159.667 616.219 161.177 613.531 163.865C610.843 166.553 609.333 170.199 609.333 174V202.667"/>
</mask>
<path d="M609.333 293C603.81 293 599.333 297.477 599.333 303C599.333 308.523 603.81 313 609.333 313V293ZM724 199.084H734C734 196.431 732.946 193.888 731.071 192.013L724 199.084ZM684.583 159.667L691.654 152.596C689.779 150.721 687.235 149.667 684.583 149.667V159.667ZM623.666 159.667V149.667V159.667ZM609.333 174H599.333H609.333ZM599.333 202.667C599.333 208.19 603.81 212.667 609.333 212.667C614.856 212.667 619.333 208.19 619.333 202.667H599.333ZM609.333 313H709.666V293H609.333V313ZM709.666 313C716.12 313 722.309 310.437 726.873 305.873L712.73 291.731C711.918 292.544 710.816 293 709.666 293V313ZM726.873 305.873C731.436 301.31 734 295.121 734 288.667H714C714 289.816 713.543 290.918 712.73 291.731L726.873 305.873ZM734 288.667V199.084H714V288.667H734ZM731.071 192.013L691.654 152.596L677.512 166.738L716.929 206.155L731.071 192.013ZM684.583 149.667H623.666V169.667H684.583V149.667ZM623.666 149.667C617.213 149.667 611.023 152.231 606.46 156.794L620.602 170.936C621.415 170.124 622.517 169.667 623.666 169.667V149.667ZM606.46 156.794C601.897 161.357 599.333 167.547 599.333 174L619.333 174C619.333 172.851 619.79 171.749 620.602 170.936L606.46 156.794ZM599.333 174V202.667H619.333V174H599.333Z" fill="url(#paint5_linear_316_63)" mask="url(#path-6-inside-1_316_63)"/>
<mask id="path-8-inside-2_316_63" fill="white">
<path d="M681 159.667V202.667H724M609.333 231.334C607.433 231.334 605.61 232.089 604.266 233.433C602.922 234.777 602.167 236.6 602.167 238.5V245.667C602.167 247.568 601.412 249.391 600.068 250.735C598.724 252.079 596.901 252.834 595 252.834C596.901 252.834 598.724 253.589 600.068 254.933C601.412 256.277 602.167 258.1 602.167 260V267.167C602.167 269.068 602.922 270.891 604.266 272.235C605.61 273.579 607.433 274.334 609.333 274.334M638 274.334C639.901 274.334 641.724 273.579 643.068 272.235C644.412 270.891 645.167 269.068 645.167 267.167V260C645.167 258.1 645.922 256.277 647.266 254.933C648.61 253.589 650.433 252.834 652.333 252.834C650.433 252.834 648.61 252.079 647.266 250.735C645.922 249.391 645.167 247.568 645.167 245.667V238.5C645.167 236.6 644.412 234.777 643.068 233.433C641.724 232.089 639.901 231.334 638 231.334"/>
</mask>
<path d="M691 159.667C691 154.144 686.523 149.667 681 149.667C675.477 149.667 671 154.144 671 159.667H691ZM681 202.667H671C671 208.19 675.477 212.667 681 212.667V202.667ZM724 212.667C729.523 212.667 734 208.19 734 202.667C734 197.144 729.523 192.667 724 192.667V212.667ZM609.333 241.334C614.856 241.334 619.333 236.857 619.333 231.334C619.333 225.811 614.856 221.334 609.333 221.334V241.334ZM602.167 238.5H592.167H602.167ZM602.167 245.667H612.167H602.167ZM595 242.834C589.477 242.834 585 247.311 585 252.834C585 258.357 589.477 262.834 595 262.834V242.834ZM602.167 260H612.167H602.167ZM602.167 267.167H592.167H602.167ZM609.333 284.334C614.856 284.334 619.333 279.857 619.333 274.334C619.333 268.811 614.856 264.334 609.333 264.334V284.334ZM638 264.334C632.477 264.334 628 268.811 628 274.334C628 279.857 632.477 284.334 638 284.334V264.334ZM652.333 262.834C657.856 262.834 662.333 258.357 662.333 252.834C662.333 247.311 657.856 242.834 652.333 242.834V262.834ZM638 221.334C632.477 221.334 628 225.811 628 231.334C628 236.857 632.477 241.334 638 241.334V221.334ZM671 159.667V202.667H691V159.667H671ZM681 212.667H724V192.667H681V212.667ZM609.333 221.334C604.78 221.334 600.414 223.142 597.195 226.362L611.337 240.504C610.805 241.035 610.085 241.334 609.333 241.334V221.334ZM597.195 226.362C593.975 229.581 592.167 233.947 592.167 238.5L612.167 238.5C612.167 239.252 611.868 239.972 611.337 240.504L597.195 226.362ZM592.167 238.5V245.667H612.167V238.5H592.167ZM592.167 245.667C592.167 244.916 592.465 244.195 592.997 243.664L607.139 257.806C610.358 254.586 612.167 250.22 612.167 245.667H592.167ZM592.997 243.664C593.528 243.132 594.249 242.834 595 242.834V262.834C599.553 262.834 603.919 261.025 607.139 257.806L592.997 243.664ZM595 262.834C594.249 262.834 593.528 262.535 592.997 262.004L607.139 247.862C603.919 244.642 599.553 242.834 595 242.834V262.834ZM592.997 262.004C592.465 261.472 592.167 260.752 592.167 260H612.167C612.167 255.447 610.358 251.081 607.139 247.862L592.997 262.004ZM592.167 260V267.167H612.167V260H592.167ZM592.167 267.167C592.167 271.72 593.975 276.086 597.195 279.306L611.337 265.164C611.868 265.695 612.167 266.416 612.167 267.167H592.167ZM597.195 279.306C600.414 282.525 604.78 284.334 609.333 284.334V264.334C610.085 264.334 610.805 264.632 611.337 265.164L597.195 279.306ZM638 284.334C642.553 284.334 646.919 282.525 650.139 279.306L635.997 265.164C636.528 264.632 637.249 264.334 638 264.334V284.334ZM650.139 279.306C653.358 276.086 655.167 271.72 655.167 267.167H635.167C635.167 266.416 635.465 265.695 635.997 265.164L650.139 279.306ZM655.167 267.167V260H635.167V267.167H655.167ZM655.167 260C655.167 260.752 654.868 261.472 654.337 262.004L640.195 247.862C636.975 251.081 635.167 255.447 635.167 260H655.167ZM654.337 262.004C653.805 262.535 653.085 262.834 652.333 262.834V242.834C647.78 242.834 643.414 244.642 640.195 247.862L654.337 262.004ZM652.333 242.834C653.085 242.834 653.805 243.132 654.337 243.664L640.195 257.806C643.414 261.025 647.78 262.834 652.333 262.834V242.834ZM654.337 243.664C654.868 244.195 655.167 244.916 655.167 245.667H635.167C635.167 250.22 636.975 254.586 640.195 257.806L654.337 243.664ZM655.167 245.667V238.5H635.167V245.667H655.167ZM655.167 238.5C655.167 233.947 653.358 229.581 650.139 226.362L635.997 240.504C635.465 239.972 635.167 239.252 635.167 238.5H655.167ZM650.139 226.362C646.919 223.142 642.553 221.334 638 221.334V241.334C637.249 241.334 636.528 241.035 635.997 240.504L650.139 226.362Z" fill="url(#paint6_linear_316_63)" mask="url(#path-8-inside-2_316_63)"/>
<defs>
<filter id="filter0_d_316_63" x="1" y="52" width="358" height="358" filterUnits="userSpaceOnUse" color-interpolation-filters="sRGB">
<feFlood flood-opacity="0" result="BackgroundImageFix"/>
<feColorMatrix in="SourceAlpha" type="matrix" values="0 0 0 0 0 0 0 0 0 0 0 0 0 0 0 0 0 0 127 0" result="hardAlpha"/>
<feOffset/>
<feGaussianBlur stdDeviation="25"/>
<feComposite in2="hardAlpha" operator="out"/>
<feColorMatrix type="matrix" values="0 0 0 0 0 0 0 0 0 0 0 0 0 0 0 0 0 0 0.25 0"/>
<feBlend mode="normal" in2="BackgroundImageFix" result="effect1_dropShadow_316_63"/>
<feBlend mode="normal" in="SourceGraphic" in2="effect1_dropShadow_316_63" result="shape"/>
</filter>
<filter id="filter1_d_316_63" x="481" y="52" width="358" height="358" filterUnits="userSpaceOnUse" color-interpolation-filters="sRGB">
<feFlood flood-opacity="0" result="BackgroundImageFix"/>
<feColorMatrix in="SourceAlpha" type="matrix" values="0 0 0 0 0 0 0 0 0 0 0 0 0 0 0 0 0 0 127 0" result="hardAlpha"/>
<feOffset/>
<feGaussianBlur stdDeviation="25"/>
<feComposite in2="hardAlpha" operator="out"/>
<feColorMatrix type="matrix" values="0 0 0 0 0 0 0 0 0 0 0 0 0 0 0 0 0 0 0.25 0"/>
<feBlend mode="normal" in2="BackgroundImageFix" result="effect1_dropShadow_316_63"/>
<feBlend mode="normal" in="SourceGraphic" in2="effect1_dropShadow_316_63" result="shape"/>
</filter>
<linearGradient id="paint0_linear_316_63" x1="114" y1="48.9999" x2="839" y2="472" gradientUnits="userSpaceOnUse">
<stop stop-color="white" stop-opacity="0.1"/>
<stop offset="0.597656" stop-color="white" stop-opacity="0.2"/>
<stop offset="1" stop-color="white" stop-opacity="0.1"/>
</linearGradient>
<linearGradient id="paint1_linear_316_63" x1="309" y1="360" x2="42.049" y2="350.38" gradientUnits="userSpaceOnUse">
<stop/>
<stop offset="1" stop-color="#363636"/>
</linearGradient>
<linearGradient id="paint2_linear_316_63" x1="108" y1="159" x2="252" y2="303" gradientUnits="userSpaceOnUse">
<stop stop-color="white"/>
<stop offset="1" stop-color="white" stop-opacity="0.6"/>
</linearGradient>
<linearGradient id="paint3_linear_316_63" x1="369" y1="208" x2="471" y2="253" gradientUnits="userSpaceOnUse">
<stop stop-color="white"/>
<stop offset="1" stop-color="white" stop-opacity="0.6"/>
</linearGradient>
<linearGradient id="paint4_linear_316_63" x1="627.5" y1="360" x2="522.954" y2="199.273" gradientUnits="userSpaceOnUse">
<stop/>
<stop offset="1" stop-color="#2C2C2C"/>
</linearGradient>
<linearGradient id="paint5_linear_316_63" x1="609" y1="160" x2="724" y2="303" gradientUnits="userSpaceOnUse">
<stop stop-color="white"/>
<stop offset="1" stop-color="white" stop-opacity="0.6"/>
</linearGradient>
<linearGradient id="paint6_linear_316_63" x1="595" y1="160" x2="724" y2="304" gradientUnits="userSpaceOnUse">
<stop stop-color="white"/>
<stop offset="1" stop-color="white" stop-opacity="0.59"/>
</linearGradient>
</defs>
</svg>
