<svg width="839" height="461" viewBox="0 0 839 461" fill="none" xmlns="http://www.w3.org/2000/svg">
<rect x="2.5" y="2.5" width="834" height="456" rx="17.5" fill="url(#paint0_linear_316_75)" stroke="#2C2C2C" stroke-width="5"/>
<g filter="url(#filter0_d_316_75)">
<rect x="101" y="213" width="669" height="127" rx="20" fill="url(#paint1_linear_316_75)"/>
</g>
<path d="M175.402 289.461C176.053 289.461 176.685 289.357 177.297 289.148C177.922 288.94 178.475 288.647 178.957 288.27C179.439 287.905 179.823 287.475 180.109 286.98C180.409 286.473 180.565 285.926 180.578 285.34H183.996C183.983 286.277 183.736 287.176 183.254 288.035C182.785 288.882 182.154 289.624 181.359 290.262C180.565 290.913 179.654 291.434 178.625 291.824C177.596 292.202 176.522 292.391 175.402 292.391C173.801 292.391 172.401 292.104 171.203 291.531C170.005 290.958 169.009 290.184 168.215 289.207C167.408 288.243 166.802 287.13 166.398 285.867C165.995 284.591 165.793 283.25 165.793 281.844V281.023C165.793 279.63 165.995 278.296 166.398 277.02C166.802 275.743 167.408 274.617 168.215 273.641C169.009 272.677 170.005 271.909 171.203 271.336C172.401 270.763 173.801 270.477 175.402 270.477C176.652 270.477 177.798 270.678 178.84 271.082C179.895 271.473 180.806 272.007 181.574 272.684C182.329 273.374 182.922 274.188 183.352 275.125C183.781 276.062 183.996 277.065 183.996 278.133H180.578C180.565 277.495 180.422 276.896 180.148 276.336C179.888 275.763 179.53 275.262 179.074 274.832C178.618 274.402 178.072 274.064 177.434 273.816C176.809 273.569 176.132 273.445 175.402 273.445C174.283 273.445 173.339 273.673 172.57 274.129C171.815 274.572 171.203 275.151 170.734 275.867C170.266 276.596 169.927 277.41 169.719 278.309C169.523 279.207 169.426 280.112 169.426 281.023V281.844C169.426 282.768 169.523 283.686 169.719 284.598C169.927 285.496 170.266 286.303 170.734 287.02C171.19 287.749 171.796 288.341 172.551 288.797C173.319 289.24 174.27 289.461 175.402 289.461ZM189.406 281.238C189.406 279.715 189.628 278.302 190.07 277C190.513 275.685 191.151 274.546 191.984 273.582C192.805 272.618 193.807 271.863 194.992 271.316C196.177 270.757 197.512 270.477 198.996 270.477C200.493 270.477 201.835 270.757 203.02 271.316C204.217 271.863 205.233 272.618 206.066 273.582C206.887 274.546 207.518 275.685 207.961 277C208.404 278.302 208.625 279.715 208.625 281.238V281.668C208.625 283.191 208.404 284.604 207.961 285.906C207.518 287.208 206.887 288.341 206.066 289.305C205.233 290.268 204.224 291.023 203.039 291.57C201.854 292.117 200.52 292.391 199.035 292.391C197.538 292.391 196.19 292.117 194.992 291.57C193.807 291.023 192.805 290.268 191.984 289.305C191.151 288.341 190.513 287.208 190.07 285.906C189.628 284.604 189.406 283.191 189.406 281.668V281.238ZM193.02 281.668C193.02 282.71 193.143 283.706 193.391 284.656C193.638 285.594 194.016 286.421 194.523 287.137C195.018 287.853 195.643 288.419 196.398 288.836C197.154 289.253 198.033 289.461 199.035 289.461C200.025 289.461 200.891 289.253 201.633 288.836C202.388 288.419 203.02 287.853 203.527 287.137C204.022 286.421 204.393 285.594 204.641 284.656C204.888 283.706 205.012 282.71 205.012 281.668V281.238C205.012 280.21 204.882 279.227 204.621 278.289C204.374 277.339 204.003 276.505 203.508 275.789C203 275.073 202.368 274.507 201.613 274.09C200.871 273.66 199.999 273.445 198.996 273.445C197.993 273.445 197.121 273.66 196.379 274.09C195.637 274.507 195.018 275.073 194.523 275.789C194.016 276.505 193.638 277.339 193.391 278.289C193.143 279.227 193.02 280.21 193.02 281.238V281.668ZM214.445 292V270.867H217.688L217.941 273.992C218.254 273.549 218.592 273.146 218.957 272.781C219.335 272.404 219.732 272.078 220.148 271.805C220.773 271.388 221.451 271.069 222.18 270.848C222.922 270.613 223.703 270.49 224.523 270.477C225.63 270.477 226.633 270.633 227.531 270.945C228.443 271.258 229.217 271.746 229.855 272.41C230.493 273.074 230.982 273.921 231.32 274.949C231.672 275.965 231.848 277.176 231.848 278.582V292H228.234V278.66C228.234 277.723 228.13 276.928 227.922 276.277C227.714 275.626 227.408 275.099 227.004 274.695C226.587 274.292 226.079 273.999 225.48 273.816C224.895 273.634 224.217 273.543 223.449 273.543C222.785 273.543 222.167 273.641 221.594 273.836C221.021 274.018 220.493 274.272 220.012 274.598C219.621 274.884 219.257 275.216 218.918 275.594C218.592 275.971 218.306 276.388 218.059 276.844V292H214.445ZM252.512 286.395C252.512 285.965 252.427 285.581 252.258 285.242C252.089 284.891 251.802 284.572 251.398 284.285C250.995 283.999 250.461 283.738 249.797 283.504C249.133 283.257 248.306 283.035 247.316 282.84C246.105 282.592 244.999 282.293 243.996 281.941C243.007 281.59 242.16 281.167 241.457 280.672C240.741 280.19 240.188 279.624 239.797 278.973C239.406 278.309 239.211 277.54 239.211 276.668C239.211 275.809 239.413 275.008 239.816 274.266C240.22 273.51 240.786 272.853 241.516 272.293C242.245 271.733 243.111 271.29 244.113 270.965C245.129 270.639 246.242 270.477 247.453 270.477C248.755 270.477 249.927 270.646 250.969 270.984C252.01 271.323 252.896 271.792 253.625 272.391C254.354 272.99 254.914 273.693 255.305 274.5C255.708 275.294 255.91 276.154 255.91 277.078H252.297C252.297 276.622 252.18 276.18 251.945 275.75C251.711 275.307 251.385 274.917 250.969 274.578C250.552 274.24 250.044 273.966 249.445 273.758C248.859 273.549 248.195 273.445 247.453 273.445C246.685 273.445 246.008 273.53 245.422 273.699C244.849 273.868 244.374 274.096 243.996 274.383C243.605 274.669 243.312 275.001 243.117 275.379C242.922 275.757 242.824 276.147 242.824 276.551C242.824 276.967 242.902 277.339 243.059 277.664C243.215 277.99 243.488 278.283 243.879 278.543C244.257 278.803 244.764 279.038 245.402 279.246C246.053 279.454 246.874 279.656 247.863 279.852C249.165 280.125 250.331 280.444 251.359 280.809C252.388 281.16 253.254 281.583 253.957 282.078C254.66 282.586 255.194 283.172 255.559 283.836C255.936 284.5 256.125 285.268 256.125 286.141C256.125 287.078 255.91 287.931 255.48 288.699C255.064 289.467 254.478 290.125 253.723 290.672C252.967 291.219 252.062 291.642 251.008 291.941C249.953 292.241 248.801 292.391 247.551 292.391C246.118 292.391 244.842 292.202 243.723 291.824C242.603 291.434 241.659 290.919 240.891 290.281C240.109 289.656 239.51 288.927 239.094 288.094C238.69 287.26 238.488 286.395 238.488 285.496H242.102C242.154 286.238 242.349 286.863 242.688 287.371C243.039 287.879 243.475 288.289 243.996 288.602C244.504 288.914 245.07 289.135 245.695 289.266C246.32 289.396 246.939 289.461 247.551 289.461C248.514 289.461 249.354 289.35 250.07 289.129C250.786 288.895 251.346 288.576 251.75 288.172C251.997 287.924 252.186 287.651 252.316 287.352C252.447 287.052 252.512 286.733 252.512 286.395ZM271.047 265.75V270.867H279.094V273.66H271.047V285.145C271.047 285.965 271.151 286.642 271.359 287.176C271.568 287.71 271.854 288.133 272.219 288.445C272.583 288.771 273 288.999 273.469 289.129C273.951 289.259 274.458 289.324 274.992 289.324C275.383 289.324 275.786 289.305 276.203 289.266C276.62 289.214 277.03 289.155 277.434 289.09C277.824 289.025 278.189 288.96 278.527 288.895C278.879 288.816 279.165 288.751 279.387 288.699L279.895 291.258C279.595 291.44 279.23 291.603 278.801 291.746C278.371 291.876 277.902 291.987 277.395 292.078C276.887 292.182 276.346 292.26 275.773 292.312C275.214 292.365 274.654 292.391 274.094 292.391C273.156 292.391 272.277 292.26 271.457 292C270.65 291.727 269.947 291.297 269.348 290.711C268.749 290.138 268.273 289.396 267.922 288.484C267.583 287.56 267.414 286.447 267.414 285.145V273.66H261.867V270.867H267.414V265.75H271.047ZM516.652 292L516.438 289.09C515.734 290.132 514.855 290.945 513.801 291.531C512.746 292.104 511.529 292.391 510.148 292.391C509.042 292.391 508.039 292.221 507.141 291.883C506.242 291.531 505.474 290.991 504.836 290.262C504.198 289.533 503.703 288.608 503.352 287.488C503.013 286.355 502.844 285.001 502.844 283.426V270.867H506.457V283.465C506.457 284.611 506.548 285.561 506.73 286.316C506.913 287.072 507.186 287.671 507.551 288.113C507.915 288.569 508.358 288.888 508.879 289.07C509.413 289.253 510.025 289.344 510.715 289.344C511.522 289.344 512.245 289.253 512.883 289.07C513.521 288.875 514.074 288.608 514.543 288.27C514.934 287.996 515.272 287.671 515.559 287.293C515.858 286.902 516.105 286.479 516.301 286.023V270.867H519.934V292H516.652ZM540.793 286.395C540.793 285.965 540.708 285.581 540.539 285.242C540.37 284.891 540.083 284.572 539.68 284.285C539.276 283.999 538.742 283.738 538.078 283.504C537.414 283.257 536.587 283.035 535.598 282.84C534.387 282.592 533.28 282.293 532.277 281.941C531.288 281.59 530.441 281.167 529.738 280.672C529.022 280.19 528.469 279.624 528.078 278.973C527.688 278.309 527.492 277.54 527.492 276.668C527.492 275.809 527.694 275.008 528.098 274.266C528.501 273.51 529.068 272.853 529.797 272.293C530.526 271.733 531.392 271.29 532.395 270.965C533.41 270.639 534.523 270.477 535.734 270.477C537.036 270.477 538.208 270.646 539.25 270.984C540.292 271.323 541.177 271.792 541.906 272.391C542.635 272.99 543.195 273.693 543.586 274.5C543.99 275.294 544.191 276.154 544.191 277.078H540.578C540.578 276.622 540.461 276.18 540.227 275.75C539.992 275.307 539.667 274.917 539.25 274.578C538.833 274.24 538.326 273.966 537.727 273.758C537.141 273.549 536.477 273.445 535.734 273.445C534.966 273.445 534.289 273.53 533.703 273.699C533.13 273.868 532.655 274.096 532.277 274.383C531.887 274.669 531.594 275.001 531.398 275.379C531.203 275.757 531.105 276.147 531.105 276.551C531.105 276.967 531.184 277.339 531.34 277.664C531.496 277.99 531.77 278.283 532.16 278.543C532.538 278.803 533.046 279.038 533.684 279.246C534.335 279.454 535.155 279.656 536.145 279.852C537.447 280.125 538.612 280.444 539.641 280.809C540.669 281.16 541.535 281.583 542.238 282.078C542.941 282.586 543.475 283.172 543.84 283.836C544.217 284.5 544.406 285.268 544.406 286.141C544.406 287.078 544.191 287.931 543.762 288.699C543.345 289.467 542.759 290.125 542.004 290.672C541.249 291.219 540.344 291.642 539.289 291.941C538.234 292.241 537.082 292.391 535.832 292.391C534.4 292.391 533.124 292.202 532.004 291.824C530.884 291.434 529.94 290.919 529.172 290.281C528.391 289.656 527.792 288.927 527.375 288.094C526.971 287.26 526.77 286.395 526.77 285.496H530.383C530.435 286.238 530.63 286.863 530.969 287.371C531.32 287.879 531.757 288.289 532.277 288.602C532.785 288.914 533.352 289.135 533.977 289.266C534.602 289.396 535.22 289.461 535.832 289.461C536.796 289.461 537.635 289.35 538.352 289.129C539.068 288.895 539.628 288.576 540.031 288.172C540.279 287.924 540.467 287.651 540.598 287.352C540.728 287.052 540.793 286.733 540.793 286.395ZM560.109 292.391C558.625 292.391 557.258 292.137 556.008 291.629C554.771 291.121 553.71 290.411 552.824 289.5C551.939 288.589 551.249 287.508 550.754 286.258C550.259 285.008 550.012 283.647 550.012 282.176V281.355C550.012 279.65 550.285 278.126 550.832 276.785C551.379 275.431 552.108 274.285 553.02 273.348C553.918 272.423 554.94 271.714 556.086 271.219C557.245 270.724 558.43 270.477 559.641 270.477C561.164 270.477 562.492 270.743 563.625 271.277C564.771 271.798 565.721 272.521 566.477 273.445C567.232 274.383 567.792 275.483 568.156 276.746C568.534 278.009 568.723 279.376 568.723 280.848V282.469H553.625V282.605C553.716 283.634 553.918 284.539 554.23 285.32C554.556 286.102 554.999 286.792 555.559 287.391C556.132 288.029 556.822 288.53 557.629 288.895C558.436 289.259 559.328 289.441 560.305 289.441C561.594 289.441 562.74 289.181 563.742 288.66C564.745 288.139 565.578 287.449 566.242 286.59L568.449 288.309C567.746 289.376 566.691 290.327 565.285 291.16C563.892 291.98 562.167 292.391 560.109 292.391ZM559.641 273.445C558.911 273.445 558.221 273.582 557.57 273.855C556.919 274.116 556.333 274.5 555.812 275.008C555.292 275.529 554.849 276.167 554.484 276.922C554.133 277.664 553.885 278.523 553.742 279.5H565.109V279.324C565.109 278.673 564.986 277.977 564.738 277.234C564.491 276.479 564.146 275.828 563.703 275.281C563.26 274.734 562.701 274.292 562.023 273.953C561.359 273.615 560.565 273.445 559.641 273.445ZM574.797 263.562H591.984V266.707H585.168V288.875H591.984V292H574.797V288.875H581.457V266.707H574.797V263.562ZM610.539 292H606.926V268.172L599.484 271.004V267.703L610.246 263.562H610.539V292ZM640.344 270.984C640.331 271.935 640.148 272.827 639.797 273.66C639.445 274.48 638.957 275.203 638.332 275.828C638.033 276.128 637.701 276.408 637.336 276.668C636.971 276.928 636.581 277.163 636.164 277.371C636.893 277.684 637.551 278.074 638.137 278.543C638.736 278.999 639.25 279.526 639.68 280.125C640.096 280.724 640.415 281.375 640.637 282.078C640.871 282.781 640.988 283.53 640.988 284.324C640.988 285.613 640.747 286.759 640.266 287.762C639.797 288.764 639.159 289.604 638.352 290.281C637.531 290.971 636.574 291.499 635.48 291.863C634.387 292.215 633.215 292.391 631.965 292.391C630.689 292.391 629.497 292.215 628.391 291.863C627.297 291.512 626.346 290.991 625.539 290.301C624.719 289.624 624.074 288.784 623.605 287.781C623.137 286.779 622.902 285.626 622.902 284.324C622.902 283.53 623.013 282.781 623.234 282.078C623.456 281.362 623.775 280.704 624.191 280.105C624.608 279.52 625.109 278.992 625.695 278.523C626.281 278.055 626.939 277.664 627.668 277.352C627.043 277.039 626.477 276.668 625.969 276.238C625.461 275.796 625.031 275.301 624.68 274.754C624.328 274.22 624.055 273.634 623.859 272.996C623.664 272.358 623.566 271.688 623.566 270.984C623.566 269.747 623.775 268.647 624.191 267.684C624.608 266.707 625.188 265.887 625.93 265.223C626.659 264.559 627.531 264.051 628.547 263.699C629.576 263.348 630.695 263.172 631.906 263.172C633.104 263.172 634.217 263.348 635.246 263.699C636.275 264.051 637.167 264.559 637.922 265.223C638.677 265.887 639.27 266.707 639.699 267.684C640.129 268.647 640.344 269.747 640.344 270.984ZM637.375 284.246C637.375 283.452 637.238 282.723 636.965 282.059C636.704 281.395 636.333 280.822 635.852 280.34C635.37 279.871 634.79 279.507 634.113 279.246C633.449 278.986 632.72 278.855 631.926 278.855C631.105 278.855 630.363 278.986 629.699 279.246C629.035 279.507 628.469 279.871 628 280.34C627.531 280.822 627.167 281.395 626.906 282.059C626.659 282.723 626.535 283.452 626.535 284.246C626.535 285.066 626.659 285.802 626.906 286.453C627.167 287.091 627.531 287.632 628 288.074C628.469 288.517 629.035 288.855 629.699 289.09C630.376 289.324 631.132 289.441 631.965 289.441C632.759 289.441 633.488 289.324 634.152 289.09C634.816 288.855 635.389 288.517 635.871 288.074C636.34 287.632 636.704 287.091 636.965 286.453C637.238 285.802 637.375 285.066 637.375 284.246ZM636.711 271.043C636.711 270.327 636.587 269.669 636.34 269.07C636.105 268.471 635.78 267.951 635.363 267.508C634.934 267.078 634.426 266.746 633.84 266.512C633.254 266.264 632.609 266.141 631.906 266.141C631.203 266.141 630.565 266.258 629.992 266.492C629.419 266.714 628.924 267.039 628.508 267.469C628.091 267.898 627.766 268.419 627.531 269.031C627.31 269.63 627.199 270.301 627.199 271.043C627.199 271.785 627.31 272.456 627.531 273.055C627.766 273.641 628.098 274.142 628.527 274.559C628.944 274.988 629.439 275.32 630.012 275.555C630.598 275.776 631.242 275.887 631.945 275.887C632.635 275.887 633.273 275.776 633.859 275.555C634.445 275.32 634.953 274.988 635.383 274.559C635.799 274.142 636.125 273.634 636.359 273.035C636.594 272.436 636.711 271.772 636.711 271.043ZM646.867 292V270.867H650.109L650.363 273.992C650.676 273.549 651.014 273.146 651.379 272.781C651.757 272.404 652.154 272.078 652.57 271.805C653.195 271.388 653.872 271.069 654.602 270.848C655.344 270.613 656.125 270.49 656.945 270.477C658.052 270.477 659.055 270.633 659.953 270.945C660.865 271.258 661.639 271.746 662.277 272.41C662.915 273.074 663.404 273.921 663.742 274.949C664.094 275.965 664.27 277.176 664.27 278.582V292H660.656V278.66C660.656 277.723 660.552 276.928 660.344 276.277C660.135 275.626 659.829 275.099 659.426 274.695C659.009 274.292 658.501 273.999 657.902 273.816C657.316 273.634 656.639 273.543 655.871 273.543C655.207 273.543 654.589 273.641 654.016 273.836C653.443 274.018 652.915 274.272 652.434 274.598C652.043 274.884 651.678 275.216 651.34 275.594C651.014 275.971 650.728 276.388 650.48 276.844V292H646.867Z" fill="white" fill-opacity="0.7"/>
<path d="M472.102 276.766H454.66V273.621H472.102V276.766ZM472.102 284.871H454.66V281.746H472.102V284.871ZM674.465 280.457C674.465 278.595 674.608 276.844 674.895 275.203C675.194 273.562 675.591 272.039 676.086 270.633C676.581 269.24 677.147 267.964 677.785 266.805C678.436 265.646 679.12 264.617 679.836 263.719C680.539 262.82 681.249 262.052 681.965 261.414C682.681 260.776 683.365 260.275 684.016 259.91L684.777 262.293C684.361 262.605 683.938 262.983 683.508 263.426C683.091 263.868 682.681 264.363 682.277 264.91C681.678 265.757 681.105 266.753 680.559 267.898C680.012 269.031 679.556 270.275 679.191 271.629C678.84 272.853 678.566 274.201 678.371 275.672C678.176 277.143 678.078 278.725 678.078 280.418V280.691C678.078 282.319 678.169 283.842 678.352 285.262C678.534 286.681 678.781 287.99 679.094 289.188C679.432 290.398 679.823 291.518 680.266 292.547C680.708 293.589 681.171 294.52 681.652 295.34C682.147 296.121 682.655 296.811 683.176 297.41C683.71 298.022 684.243 298.543 684.777 298.973L684.016 301.18C683.365 300.815 682.674 300.314 681.945 299.676C681.229 299.051 680.52 298.283 679.816 297.371C679.1 296.473 678.417 295.444 677.766 294.285C677.128 293.139 676.568 291.863 676.086 290.457C675.591 289.064 675.194 287.547 674.895 285.906C674.608 284.266 674.465 282.514 674.465 280.652V280.457ZM708.098 280.652C708.098 282.514 707.948 284.266 707.648 285.906C707.362 287.547 706.971 289.064 706.477 290.457C705.982 291.863 705.409 293.139 704.758 294.285C704.12 295.444 703.449 296.473 702.746 297.371C702.03 298.283 701.307 299.051 700.578 299.676C699.862 300.314 699.178 300.815 698.527 301.18L697.766 298.973C698.312 298.569 698.866 298.048 699.426 297.41C699.986 296.772 700.52 296.036 701.027 295.203C701.509 294.357 701.971 293.4 702.414 292.332C702.87 291.277 703.241 290.118 703.527 288.855C703.827 287.684 704.055 286.421 704.211 285.066C704.38 283.699 704.465 282.241 704.465 280.691V280.418C704.465 278.66 704.354 277.065 704.133 275.633C703.924 274.201 703.69 272.983 703.43 271.98C703.052 270.548 702.596 269.266 702.062 268.133C701.529 266.987 700.982 265.991 700.422 265.145C699.992 264.48 699.549 263.901 699.094 263.406C698.638 262.898 698.195 262.469 697.766 262.117L698.527 259.91C699.178 260.275 699.868 260.776 700.598 261.414C701.327 262.052 702.043 262.82 702.746 263.719C703.475 264.643 704.159 265.672 704.797 266.805C705.435 267.938 705.995 269.214 706.477 270.633C706.945 272 707.329 273.484 707.629 275.086C707.941 276.674 708.098 278.465 708.098 280.457V280.652Z" fill="white"/>
<path d="M326.242 299.148C324.979 299.109 323.885 298.816 322.961 298.27C322.036 297.723 321.268 297 320.656 296.102C320.07 295.242 319.628 294.279 319.328 293.211C319.029 292.156 318.879 291.108 318.879 290.066V286.766C318.879 284.891 318.43 283.53 317.531 282.684C316.646 281.837 315.285 281.408 313.449 281.395V278.562C315.285 278.562 316.646 278.146 317.531 277.312C318.43 276.466 318.879 275.099 318.879 273.211V269.891C318.879 268.836 319.016 267.762 319.289 266.668C319.576 265.561 320.025 264.572 320.637 263.699C321.21 262.866 321.958 262.189 322.883 261.668C323.807 261.134 324.927 260.848 326.242 260.809L326.652 263.055C325.715 263.081 324.966 263.302 324.406 263.719C323.859 264.135 323.449 264.663 323.176 265.301C322.889 265.952 322.707 266.681 322.629 267.488C322.551 268.296 322.512 269.096 322.512 269.891V273.211C322.512 274.773 322.147 276.147 321.418 277.332C320.702 278.504 319.589 279.396 318.078 280.008C319.589 280.607 320.702 281.499 321.418 282.684C322.134 283.855 322.499 285.216 322.512 286.766V290.066C322.512 290.874 322.577 291.674 322.707 292.469C322.837 293.276 323.065 293.999 323.391 294.637C323.703 295.288 324.12 295.822 324.641 296.238C325.174 296.655 325.845 296.876 326.652 296.902L326.242 299.148ZM409.543 296.902C410.337 296.876 411.001 296.655 411.535 296.238C412.069 295.822 412.499 295.288 412.824 294.637C413.137 293.999 413.358 293.276 413.488 292.469C413.632 291.674 413.703 290.874 413.703 290.066V286.766C413.703 285.737 413.853 284.786 414.152 283.914C414.465 283.042 414.94 282.286 415.578 281.648C415.917 281.31 416.294 281.004 416.711 280.73C417.141 280.457 417.609 280.216 418.117 280.008C417.596 279.799 417.115 279.552 416.672 279.266C416.242 278.979 415.865 278.66 415.539 278.309C414.914 277.658 414.452 276.902 414.152 276.043C413.853 275.171 413.703 274.227 413.703 273.211V269.891C413.703 269.096 413.658 268.296 413.566 267.488C413.488 266.681 413.312 265.952 413.039 265.301C412.753 264.663 412.336 264.135 411.789 263.719C411.242 263.302 410.5 263.081 409.562 263.055L409.953 260.809C411.216 260.848 412.297 261.115 413.195 261.609C414.107 262.104 414.855 262.749 415.441 263.543C416.105 264.441 416.581 265.451 416.867 266.57C417.167 267.69 417.316 268.797 417.316 269.891V273.211C417.316 273.992 417.388 274.682 417.531 275.281C417.688 275.867 417.915 276.375 418.215 276.805C418.645 277.417 419.237 277.866 419.992 278.152C420.76 278.426 421.678 278.562 422.746 278.562V281.395C421.809 281.408 420.988 281.525 420.285 281.746C419.595 281.954 419.029 282.286 418.586 282.742C418.156 283.185 417.837 283.738 417.629 284.402C417.421 285.066 417.316 285.854 417.316 286.766V290.066C417.316 291.108 417.173 292.156 416.887 293.211C416.6 294.279 416.158 295.249 415.559 296.121C414.947 296.993 414.178 297.71 413.254 298.27C412.329 298.829 411.229 299.122 409.953 299.148L409.543 296.902ZM726.027 272.547C726.027 271.779 726.262 271.121 726.73 270.574C727.199 270.027 727.909 269.754 728.859 269.754C729.797 269.754 730.507 270.027 730.988 270.574C731.483 271.108 731.73 271.766 731.73 272.547C731.73 273.315 731.483 273.96 730.988 274.48C730.493 275.001 729.784 275.262 728.859 275.262C727.922 275.262 727.212 275.001 726.73 274.48C726.262 273.947 726.027 273.302 726.027 272.547ZM730.676 291.16C730.676 292.462 730.37 293.79 729.758 295.145C729.146 296.499 728.319 297.638 727.277 298.562L725.031 297.332C725.656 296.421 726.099 295.451 726.359 294.422C726.62 293.393 726.75 292.326 726.75 291.219V287.723H730.676V291.16Z" fill="white" fill-opacity="0.5"/>
<path d="M367.902 265.691V270.867H375.793V274.871H367.902V283.953C367.902 284.721 367.987 285.366 368.156 285.887C368.339 286.395 368.592 286.798 368.918 287.098C369.243 287.41 369.634 287.632 370.09 287.762C370.559 287.892 371.079 287.957 371.652 287.957C372.069 287.957 372.492 287.938 372.922 287.898C373.365 287.859 373.788 287.807 374.191 287.742C374.582 287.69 374.947 287.632 375.285 287.566C375.637 287.501 375.936 287.436 376.184 287.371L376.711 291.102C376.333 291.323 375.891 291.518 375.383 291.688C374.875 291.844 374.335 291.974 373.762 292.078C373.189 292.182 372.59 292.26 371.965 292.312C371.353 292.378 370.747 292.41 370.148 292.41C368.99 292.41 367.935 292.26 366.984 291.961C366.047 291.648 365.246 291.167 364.582 290.516C363.905 289.878 363.384 289.064 363.02 288.074C362.655 287.072 362.473 285.874 362.473 284.48V274.871H357.648V270.867H362.473V265.691H367.902Z" fill="url(#paint2_linear_316_75)"/>
<path d="M250.714 160.21L241.037 163.079C229.915 125.566 190.629 104.206 153.179 115.31L143.502 118.179L139.852 105.869C142.29 103.294 144.008 100.122 144.832 96.6698C145.657 93.218 145.559 89.6088 144.549 86.2051C143.539 82.8014 141.652 79.7233 139.078 77.2802C136.504 74.837 133.334 73.1151 129.886 72.2875C126.438 71.4598 122.834 71.5557 119.436 72.5655C116.038 73.5752 112.967 75.4632 110.531 78.0397C108.094 80.6161 106.379 83.7901 105.557 87.2425C104.735 90.6949 104.835 94.3041 105.848 97.707C107.975 104.88 113.714 110.033 120.497 111.607L124.148 123.918L114.47 126.787C77.0199 137.891 55.7264 177.212 66.8491 214.726L57.172 217.595C51.8496 219.173 48.7882 224.826 50.3689 230.158L58.9912 259.238C60.5719 264.569 66.2199 267.64 71.5424 266.062L81.2195 263.193L84.0936 272.886C85.6181 278.028 89.1192 282.355 93.8269 284.914C98.5345 287.474 104.063 288.057 109.196 286.535L244.676 246.365C255.417 243.18 261.472 231.999 258.282 221.24L255.408 211.546L265.085 208.677C270.407 207.099 273.469 201.446 271.888 196.114L263.266 167.034C261.685 161.703 256.037 158.632 250.714 160.21ZM139.742 219.477C133.439 212.066 123.238 208.552 113.27 211.508C103.303 214.463 96.6656 222.969 95.4207 232.618C93.2717 229.986 91.5491 227.017 90.5145 223.527C88.6088 217.1 89.3301 210.181 92.5197 204.291C95.7092 198.401 101.106 194.023 107.522 192.121C113.938 190.218 120.849 190.947 126.733 194.146C132.618 197.346 136.994 202.754 138.9 209.181C139.935 212.671 140.109 216.099 139.742 219.477ZM226.836 193.654C220.533 186.243 210.041 182.815 200.364 185.684C190.687 188.554 183.76 197.146 182.515 206.795C180.366 204.163 178.643 201.194 177.609 197.704C175.703 191.277 176.424 184.357 179.614 178.468C182.803 172.578 188.2 168.2 194.616 166.298C201.033 164.395 207.943 165.124 213.828 168.323C219.712 171.523 224.089 176.931 225.994 183.358C227.029 186.848 227.203 190.276 226.836 193.654Z" fill="url(#paint3_linear_316_75)"/>
<defs>
<filter id="filter0_d_316_75" x="51" y="163" width="769" height="227" filterUnits="userSpaceOnUse" color-interpolation-filters="sRGB">
<feFlood flood-opacity="0" result="BackgroundImageFix"/>
<feColorMatrix in="SourceAlpha" type="matrix" values="0 0 0 0 0 0 0 0 0 0 0 0 0 0 0 0 0 0 127 0" result="hardAlpha"/>
<feOffset/>
<feGaussianBlur stdDeviation="25"/>
<feComposite in2="hardAlpha" operator="out"/>
<feColorMatrix type="matrix" values="0 0 0 0 0 0 0 0 0 0 0 0 0 0 0 0 0 0 0.25 0"/>
<feBlend mode="normal" in2="BackgroundImageFix" result="effect1_dropShadow_316_75"/>
<feBlend mode="normal" in="SourceGraphic" in2="effect1_dropShadow_316_75" result="shape"/>
</filter>
<linearGradient id="paint0_linear_316_75" x1="114" y1="48.9999" x2="839" y2="472" gradientUnits="userSpaceOnUse">
<stop stop-color="white" stop-opacity="0.1"/>
<stop offset="0.597656" stop-color="white" stop-opacity="0.2"/>
<stop offset="1" stop-color="white" stop-opacity="0.1"/>
</linearGradient>
<linearGradient id="paint1_linear_316_75" x1="770" y1="340" x2="101" y2="213" gradientUnits="userSpaceOnUse">
<stop/>
<stop offset="1" stop-color="#484848"/>
</linearGradient>
<linearGradient id="paint2_linear_316_75" x1="448.5" y1="257" x2="448" y2="303" gradientUnits="userSpaceOnUse">
<stop stop-color="#00FFE0"/>
<stop offset="1" stop-color="#FF00E6"/>
</linearGradient>
<linearGradient id="paint3_linear_316_75" x1="246" y1="74.5" x2="47" y2="288.5" gradientUnits="userSpaceOnUse">
<stop stop-color="white"/>
<stop offset="1" stop-color="white" stop-opacity="0.6"/>
</linearGradient>
</defs>
</svg>
