<svg width="452" height="444" viewBox="0 0 452 444" fill="none" xmlns="http://www.w3.org/2000/svg">
<path d="M176.902 124.796C177.711 129.735 177.453 134.787 176.148 139.622C174.842 144.458 172.516 148.969 169.322 152.863C189.085 186.079 216.272 214.438 248.828 235.796C254.31 239.443 259.955 242.615 264.954 245.786C270.076 240.218 276.835 236.356 284.29 234.737C291.746 233.117 299.53 233.82 306.562 236.748C331.699 204.01 348.859 166.034 356.715 125.748C298.591 105.562 235.244 105.227 176.902 124.796Z" fill="white"/>
<path d="M225.775 2.53318e-05C165.896 2.53318e-05 108.469 23.3893 66.128 65.0224C23.787 106.655 0 163.122 0 222.001C0 229.136 -1.00725e-06 236.113 1.12887 243.091C5.28458 285.909 22.0012 326.618 49.2467 360.27C76.4921 393.92 113.093 419.065 154.6 432.645C196.107 446.225 240.732 447.657 283.05 436.766C325.369 425.874 363.56 403.131 392.976 371.298C422.396 339.464 441.777 299.911 448.761 257.451C455.748 214.99 450.036 171.448 432.326 132.118C414.613 92.7882 385.664 59.3641 348.997 35.9095C312.329 12.4548 269.519 -0.0205184 225.775 2.53318e-05ZM392.688 302.715C369.18 302.633 345.773 299.648 323.019 293.833C317.614 301.059 309.681 306.059 300.747 307.875C291.815 309.691 282.515 308.189 274.639 303.663C241.485 329.899 202.988 348.826 161.752 359.165C160.501 365.69 157.492 371.769 153.038 376.76C148.585 381.754 142.85 385.479 136.433 387.548L131.756 388.5C110.893 377.159 92.3542 362.104 77.0861 344.101H87.7298C89.2719 336.549 93.1755 329.663 98.8944 324.401C104.613 319.138 111.861 315.763 119.626 314.751C127.39 313.736 135.282 315.135 142.199 318.748C149.116 322.361 154.712 328.011 158.204 334.905C194.762 325.416 228.918 308.57 258.512 285.429C255.93 279.596 254.929 273.203 255.61 266.876C248.837 263.071 242.063 259.106 235.451 254.825C200.318 231.92 170.84 201.58 149.173 166.025C142.697 167.773 135.862 167.767 129.389 166.008C122.917 164.25 117.048 160.804 112.404 156.035C82.4067 177.642 55.3131 202.897 31.7697 231.198V222.159C31.848 212.973 32.6026 203.805 34.0277 194.726C53.3719 171.384 76.2098 151.066 101.76 134.469C100.853 127.468 102.049 120.36 105.202 114.02C108.354 107.68 113.324 102.386 119.5 98.7902C117.564 91.9715 115.629 85.1531 114.178 78.1758C114.178 75.9559 114.178 73.5773 112.404 68.0272C119.443 62.9439 126.825 58.3345 134.497 54.2315C136.11 63.5874 136.755 68.503 137.884 73.4187C139.013 78.3344 141.109 86.8972 143.045 93.5573H147.076C153.988 95.1292 160.306 98.5927 165.299 103.547C228.43 81.6562 297.212 81.2652 360.595 102.437V86.5803C378.597 104.022 392.952 124.763 402.848 147.63C394.998 143.085 387.043 138.962 378.981 135.262C369.825 177.732 351.147 217.658 324.309 252.129C327.778 257.834 329.615 264.353 329.631 270.999C356.146 276.395 383.2 278.79 410.265 278.135C407.562 286.436 404.274 294.543 400.427 302.398L392.688 302.715Z" fill="white"/>
</svg>
