<svg width="186" height="38" viewBox="0 0 186 38" fill="none" xmlns="http://www.w3.org/2000/svg">
<g clip-path="url(#clip0_107_10)">
<path d="M14.3553 11.3529C14.4209 11.7537 14.4001 12.1636 14.2941 12.556C14.1882 12.9484 13.9994 13.3145 13.7402 13.6305C15.3439 16.3259 17.5502 18.6272 20.192 20.3604C20.6369 20.6564 21.095 20.9137 21.5006 21.1711C21.9163 20.7192 22.4647 20.4059 23.0698 20.2744C23.6748 20.143 24.3065 20.2 24.877 20.4376C26.9169 17.781 28.3094 14.6993 28.9469 11.4301C24.2302 9.79206 19.0897 9.76485 14.3553 11.3529Z" fill="black"/>
<path d="M18.3213 1.22583C13.4622 1.22583 8.80211 3.12384 5.3662 6.50231C1.93028 9.88078 0 14.463 0 19.2409C0 19.8199 -8.17367e-08 20.3861 0.0916067 20.9523C0.428837 24.427 1.78537 27.7305 3.99631 30.4613C6.20724 33.1919 9.17733 35.2324 12.5456 36.3344C15.9138 37.4364 19.5351 37.5526 22.9692 36.6688C26.4033 35.785 29.5024 33.9394 31.8895 31.3562C34.2769 28.7729 35.8496 25.5632 36.4164 22.1176C36.9833 18.672 36.5198 15.1386 35.0827 11.947C33.6453 8.75547 31.2961 6.04315 28.3206 4.13984C25.3451 2.23652 21.8712 1.22417 18.3213 1.22583ZM31.8661 25.7907C29.9585 25.7841 28.0591 25.5419 26.2125 25.07C25.774 25.6564 25.1302 26.0621 24.4053 26.2095C23.6804 26.3568 22.9257 26.235 22.2866 25.8677C19.5962 27.9967 16.4722 29.5326 13.1259 30.3716C13.0244 30.9011 12.7802 31.3944 12.4188 31.7994C12.0575 32.2047 11.5921 32.5069 11.0713 32.6749L10.6918 32.7521C8.99879 31.8318 7.49443 30.6101 6.25543 29.1492H7.11916C7.2443 28.5363 7.56107 27.9776 8.02515 27.5505C8.4892 27.1234 9.0774 26.8496 9.70748 26.7675C10.3375 26.6851 10.978 26.7986 11.5393 27.0918C12.1006 27.385 12.5547 27.8435 12.838 28.4029C15.8047 27.6329 18.5764 26.2659 20.978 24.388C20.7684 23.9147 20.6872 23.3959 20.7424 22.8825C20.1928 22.5737 19.6431 22.252 19.1066 21.9045C16.2556 20.0458 13.8634 17.5838 12.1052 14.6985C11.5797 14.8404 11.025 14.8399 10.4998 14.6972C9.97454 14.5545 9.49829 14.2749 9.12143 13.8878C6.6872 15.6412 4.48858 17.6906 2.57807 19.9872V19.2537C2.58443 18.5083 2.64566 17.7643 2.7613 17.0276C4.33106 15.1334 6.18433 13.4847 8.2577 12.1378C8.1841 11.5697 8.28116 10.9929 8.53698 10.4784C8.79276 9.96394 9.1961 9.53432 9.69723 9.24253C9.5402 8.6892 9.38315 8.1359 9.26537 7.5697C9.26537 7.38955 9.26537 7.19654 9.12143 6.74615C9.69267 6.33364 10.2917 5.9596 10.9143 5.62665C11.0452 6.38586 11.0975 6.78476 11.1891 7.18367C11.2807 7.58257 11.4508 8.27743 11.6079 8.81789H11.9351C12.4959 8.94544 13.0086 9.2265 13.4138 9.62856C18.5368 7.85212 24.1183 7.8204 29.2618 9.53849V8.25171C30.7227 9.66708 31.8875 11.3502 32.6906 13.2058C32.0536 12.837 31.4081 12.5024 30.7538 12.2021C30.0108 15.6485 28.4952 18.8885 26.3173 21.6858C26.5987 22.1487 26.7478 22.6777 26.7491 23.2171C28.9008 23.655 31.0962 23.8492 33.2925 23.7961C33.0731 24.4697 32.8063 25.1276 32.4942 25.765L31.8661 25.7907Z" fill="black"/>
<path d="M61.5284 7.57776V30.4H56.6211V7.57776H61.5284ZM70.3031 20.5045V30.4H65.475V13.2833H70.0764V16.3033H70.2804C70.6656 15.3078 71.3116 14.5203 72.2184 13.9408C73.125 13.3539 74.2243 13.0604 75.5163 13.0604C76.7251 13.0604 77.7792 13.3205 78.6783 13.8405C79.5774 14.3606 80.2763 15.1035 80.7749 16.0693C81.2736 17.0276 81.5229 18.1717 81.5229 19.5015V30.4H76.6949V20.3484C76.7026 19.3009 76.4306 18.4837 75.8791 17.8968C75.3273 17.3025 74.5681 17.0053 73.6009 17.0053C72.9512 17.0053 72.377 17.1428 71.8783 17.4177C71.3871 17.6925 71.0019 18.0937 70.7224 18.6211C70.4504 19.1412 70.3105 19.769 70.3031 20.5045ZM94.5873 13.2833V16.8493H84.104V13.2833H94.5873ZM86.4841 9.18244H91.3118V25.1401C91.3118 25.5785 91.3799 25.9202 91.5158 26.1654C91.6519 26.4032 91.8407 26.5704 92.0825 26.667C92.3318 26.7636 92.6191 26.8119 92.944 26.8119C93.1706 26.8119 93.3972 26.7932 93.6239 26.756C93.8505 26.7116 94.0243 26.678 94.1452 26.6557L94.9044 30.1882C94.6628 30.2625 94.3228 30.3481 93.8844 30.4447C93.4464 30.5486 92.9138 30.6119 92.2865 30.6342C91.1231 30.6785 90.1031 30.5263 89.2267 30.1772C88.3578 29.8281 87.6816 29.2858 87.1979 28.5503C86.7144 27.8148 86.4763 26.8861 86.4841 25.7643V9.18244ZM105.478 30.7344C103.688 30.7344 102.146 30.3777 100.854 29.6646C99.5699 28.944 98.5803 27.9261 97.8852 26.6111C97.19 25.2889 96.8425 23.725 96.8425 21.9197C96.8425 20.159 97.19 18.6137 97.8852 17.2839C98.5803 15.9541 99.5587 14.9177 100.821 14.1748C102.09 13.4319 103.578 13.0604 105.286 13.0604C106.434 13.0604 107.503 13.2425 108.493 13.6065C109.49 13.9631 110.359 14.5017 111.1 15.2223C111.848 15.943 112.429 16.8493 112.845 17.9414C113.261 19.0261 113.468 20.2964 113.468 21.7525V23.0564H98.769V20.1144H108.924C108.924 19.4309 108.773 18.8255 108.47 18.298C108.168 17.7705 107.749 17.3582 107.212 17.061C106.684 16.7564 106.068 16.6042 105.365 16.6042C104.632 16.6042 103.982 16.7713 103.416 17.1056C102.857 17.4325 102.418 17.8745 102.101 18.4317C101.784 18.9815 101.621 19.5944 101.614 20.2704V23.0675C101.614 23.9144 101.772 24.6461 102.09 25.2627C102.415 25.8795 102.872 26.3549 103.461 26.6893C104.05 27.0234 104.749 27.1906 105.558 27.1906C106.094 27.1906 106.585 27.1164 107.031 26.9678C107.477 26.8192 107.858 26.5964 108.176 26.2992C108.493 26.0021 108.735 25.638 108.901 25.207L113.366 25.4968C113.14 26.5517 112.675 27.4731 111.972 28.2605C111.277 29.0406 110.378 29.6496 109.275 30.088C108.18 30.5189 106.914 30.7344 105.478 30.7344ZM116.619 30.4V13.2833H121.299V16.2698H121.481C121.798 15.2075 122.331 14.4051 123.079 13.8628C123.827 13.313 124.688 13.0382 125.663 13.0382C125.905 13.0382 126.165 13.053 126.445 13.0827C126.724 13.1124 126.97 13.1533 127.181 13.2053V17.4177C126.955 17.3508 126.641 17.2913 126.241 17.2393C125.84 17.1873 125.474 17.1613 125.141 17.1613C124.431 17.1613 123.797 17.3136 123.238 17.6182C122.686 17.9154 122.248 18.3314 121.923 18.8663C121.605 19.4012 121.447 20.0178 121.447 20.7162V30.4H116.619Z" fill="black"/>
<path d="M139.039 13.2833V16.8493H128.295V13.2833H139.039ZM130.754 30.4V12.0464C130.754 10.8057 131 9.77677 131.491 8.95955C131.989 8.14235 132.669 7.52945 133.531 7.12084C134.392 6.71225 135.371 6.50793 136.466 6.50793C137.206 6.50793 137.883 6.56366 138.495 6.67511C139.114 6.78654 139.575 6.88683 139.877 6.97597L139.016 10.542C138.827 10.4825 138.593 10.4268 138.313 10.3748C138.041 10.3228 137.762 10.2968 137.475 10.2968C136.765 10.2968 136.27 10.4603 135.99 10.7871C135.71 11.1066 135.571 11.5561 135.571 12.1355V30.4H130.754ZM146.816 7.57774V30.4H141.988V7.57774H146.816ZM158.617 30.7344C156.826 30.7344 155.285 30.3777 153.993 29.6645C152.708 28.944 151.719 27.9261 151.024 26.6111C150.328 25.2889 149.981 23.725 149.981 21.9197C149.981 20.159 150.328 18.6137 151.024 17.2839C151.719 15.9541 152.697 14.9177 153.959 14.1748C155.228 13.4319 156.717 13.0604 158.424 13.0604C159.573 13.0604 160.642 13.2425 161.631 13.6065C162.629 13.9631 163.498 14.5017 164.238 15.2223C164.986 15.9429 165.568 16.8493 165.983 17.9414C166.399 19.026 166.607 20.2964 166.607 21.7525V23.0563H151.907V20.1144H162.062C162.062 19.4309 161.911 18.8255 161.609 18.298C161.306 17.7705 160.887 17.3582 160.351 17.061C159.822 16.7564 159.206 16.6041 158.503 16.6041C157.771 16.6041 157.121 16.7713 156.554 17.1056C155.995 17.4325 155.557 17.8745 155.239 18.4317C154.922 18.9814 154.76 19.5944 154.752 20.2704V23.0675C154.752 23.9144 154.911 24.6461 155.228 25.2627C155.553 25.8795 156.01 26.3549 156.6 26.6893C157.189 27.0234 157.888 27.1906 158.696 27.1906C159.233 27.1906 159.724 27.1163 160.169 26.9678C160.615 26.8192 160.997 26.5964 161.314 26.2992C161.631 26.0021 161.873 25.638 162.039 25.207L166.505 25.4968C166.278 26.5517 165.813 27.4731 165.111 28.2605C164.416 29.0406 163.516 29.6496 162.413 30.0879C161.318 30.5189 160.052 30.7344 158.617 30.7344ZM173.48 13.2833L176.676 19.2675L179.952 13.2833H184.904L179.861 21.8417L185.04 30.4H180.11L176.676 24.4827L173.299 30.4H168.312L173.48 21.8417L168.494 13.2833H173.48Z" fill="#FF003D"/>
</g>
<defs>
<clipPath id="clip0_107_10">
<rect width="186" height="38" fill="white"/>
</clipPath>
</defs>
</svg>
