<svg width="37" height="37" viewBox="0 0 37 37" fill="none" xmlns="http://www.w3.org/2000/svg">
<path d="M14.3553 10.3529C14.4209 10.7537 14.4001 11.1636 14.2941 11.556C14.1882 11.9484 13.9994 12.3145 13.7402 12.6305C15.3439 15.3259 17.5502 17.6272 20.192 19.3604C20.6369 19.6564 21.095 19.9137 21.5006 20.1711C21.9163 19.7192 22.4647 19.4059 23.0698 19.2744C23.6748 19.143 24.3065 19.2 24.877 19.4376C26.9169 16.781 28.3094 13.6993 28.9469 10.4301C24.2302 8.79206 19.0897 8.76485 14.3553 10.3529Z" fill="black"/>
<path d="M18.3213 0.225832C13.4622 0.225832 8.80211 2.12384 5.3662 5.50231C1.93028 8.88078 0 13.463 0 18.2409C0 18.8199 -8.17367e-08 19.3861 0.0916067 19.9523C0.428837 23.427 1.78537 26.7305 3.99631 29.4613C6.20724 32.1919 9.17733 34.2324 12.5456 35.3344C15.9138 36.4364 19.5351 36.5526 22.9692 35.6688C26.4033 34.785 29.5024 32.9394 31.8895 30.3562C34.2769 27.7729 35.8496 24.5632 36.4164 21.1176C36.9833 17.672 36.5198 14.1386 35.0827 10.947C33.6453 7.75547 31.2961 5.04315 28.3206 3.13984C25.3451 1.23652 21.8712 0.224165 18.3213 0.225832ZM31.8661 24.7907C29.9585 24.7841 28.0591 24.5419 26.2125 24.07C25.774 24.6564 25.1302 25.0621 24.4053 25.2095C23.6804 25.3568 22.9257 25.235 22.2866 24.8677C19.5962 26.9967 16.4722 28.5326 13.1259 29.3716C13.0244 29.9011 12.7802 30.3944 12.4188 30.7994C12.0575 31.2047 11.5921 31.5069 11.0713 31.6749L10.6918 31.7521C8.99879 30.8318 7.49443 29.6101 6.25543 28.1492H7.11916C7.2443 27.5363 7.56107 26.9776 8.02515 26.5505C8.4892 26.1234 9.0774 25.8496 9.70748 25.7675C10.3375 25.6851 10.978 25.7986 11.5393 26.0918C12.1006 26.385 12.5547 26.8435 12.838 27.4029C15.8047 26.6329 18.5764 25.2659 20.978 23.388C20.7684 22.9147 20.6872 22.3959 20.7424 21.8825C20.1928 21.5737 19.6431 21.252 19.1066 20.9045C16.2556 19.0458 13.8634 16.5838 12.1052 13.6985C11.5797 13.8404 11.025 13.8399 10.4998 13.6972C9.97454 13.5545 9.49829 13.2749 9.12143 12.8878C6.6872 14.6412 4.48858 16.6906 2.57807 18.9872V18.2537C2.58443 17.5083 2.64566 16.7643 2.7613 16.0276C4.33106 14.1334 6.18433 12.4847 8.2577 11.1378C8.1841 10.5697 8.28116 9.99288 8.53698 9.47841C8.79276 8.96394 9.1961 8.53432 9.69723 8.24253C9.5402 7.6892 9.38315 7.1359 9.26537 6.5697C9.26537 6.38955 9.26537 6.19654 9.12143 5.74615C9.69267 5.33364 10.2917 4.9596 10.9143 4.62665C11.0452 5.38586 11.0975 5.78476 11.1891 6.18367C11.2807 6.58257 11.4508 7.27743 11.6079 7.81789H11.9351C12.4959 7.94544 13.0086 8.2265 13.4138 8.62856C18.5368 6.85212 24.1183 6.8204 29.2618 8.53849V7.25171C30.7227 8.66708 31.8875 10.3502 32.6906 12.2058C32.0536 11.837 31.4081 11.5024 30.7538 11.2021C30.0108 14.6485 28.4952 17.8885 26.3173 20.6858C26.5987 21.1487 26.7478 21.6777 26.7491 22.2171C28.9008 22.655 31.0962 22.8492 33.2925 22.7961C33.0731 23.4697 32.8063 24.1276 32.4942 24.765L31.8661 24.7907Z" fill="black"/>
</svg>
