<svg width="839" height="461" viewBox="0 0 839 461" fill="none" xmlns="http://www.w3.org/2000/svg">
<g clip-path="url(#clip0_318_98)">
<rect x="2.5" y="2.5" width="834" height="456" rx="17.5" fill="url(#paint0_linear_318_98)" stroke="#2C2C2C" stroke-width="5"/>
<mask id="mask0_318_98" style="mask-type:alpha" maskUnits="userSpaceOnUse" x="85" y="14" width="669" height="127">
<rect x="85" y="14" width="669" height="127" rx="20" fill="url(#paint1_linear_318_98)"/>
</mask>
<g mask="url(#mask0_318_98)">
<g filter="url(#filter0_d_318_98)">
<rect x="85" y="14" width="669" height="127" rx="20" fill="url(#paint2_linear_318_98)"/>
</g>
<path d="M165.296 55.392V100H159.472V79.776H136.752V100H130.928V55.392H136.752V74.976H159.472V55.392H165.296ZM207.241 81.12C207.241 82.2293 207.177 83.4027 207.049 84.64H179.017C179.23 88.096 180.403 90.8053 182.537 92.768C184.713 94.688 187.337 95.648 190.409 95.648C192.926 95.648 195.017 95.072 196.681 93.92C198.387 92.7253 199.582 91.1467 200.265 89.184H206.537C205.598 92.5547 203.721 95.3067 200.905 97.44C198.089 99.5307 194.59 100.576 190.409 100.576C187.081 100.576 184.094 99.8293 181.449 98.336C178.846 96.8427 176.798 94.7307 175.305 92C173.811 89.2267 173.065 86.0267 173.065 82.4C173.065 78.7733 173.79 75.5947 175.241 72.864C176.691 70.1333 178.718 68.0427 181.321 66.592C183.966 65.0987 186.995 64.352 190.409 64.352C193.737 64.352 196.681 65.0773 199.241 66.528C201.801 67.9787 203.763 69.984 205.129 72.544C206.537 75.0613 207.241 77.92 207.241 81.12ZM201.225 79.904C201.225 77.6853 200.734 75.7867 199.753 74.208C198.771 72.5867 197.427 71.3707 195.721 70.56C194.057 69.7067 192.201 69.28 190.153 69.28C187.209 69.28 184.691 70.2187 182.601 72.096C180.553 73.9733 179.379 76.576 179.081 79.904H201.225ZM220.752 52.64V100H214.928V52.64H220.752ZM236.502 52.64V100H230.678V52.64H236.502ZM261.724 100.576C258.439 100.576 255.452 99.8293 252.764 98.336C250.119 96.8427 248.028 94.7307 246.492 92C244.999 89.2267 244.252 86.0267 244.252 82.4C244.252 78.816 245.02 75.6587 246.556 72.928C248.135 70.1547 250.268 68.0427 252.956 66.592C255.644 65.0987 258.652 64.352 261.98 64.352C265.308 64.352 268.316 65.0987 271.004 66.592C273.692 68.0427 275.804 70.1333 277.34 72.864C278.919 75.5947 279.708 78.7733 279.708 82.4C279.708 86.0267 278.897 89.2267 277.276 92C275.697 94.7307 273.543 96.8427 270.812 98.336C268.081 99.8293 265.052 100.576 261.724 100.576ZM261.724 95.456C263.815 95.456 265.777 94.9653 267.612 93.984C269.447 93.0027 270.919 91.5307 272.028 89.568C273.18 87.6053 273.756 85.216 273.756 82.4C273.756 79.584 273.201 77.1947 272.092 75.232C270.983 73.2693 269.532 71.8187 267.74 70.88C265.948 69.8987 264.007 69.408 261.916 69.408C259.783 69.408 257.82 69.8987 256.028 70.88C254.279 71.8187 252.871 73.2693 251.804 75.232C250.737 77.1947 250.204 79.584 250.204 82.4C250.204 85.2587 250.716 87.6693 251.74 89.632C252.807 91.5947 254.215 93.0667 255.964 94.048C257.713 94.9867 259.633 95.456 261.724 95.456ZM293.382 91.936L286.214 109.152H282.309L286.982 91.936H293.382ZM318.908 73.824C323.26 73.0133 325.436 70.7733 325.436 67.104C325.436 65.4827 325.222 62.7093 324.796 58.784C324.369 54.6027 324.156 51.5733 324.156 49.696C324.156 46.624 325.009 44.2773 326.716 42.656C328.465 41.0347 330.79 40.224 333.692 40.224H337.404V45.28H334.78C333.116 45.28 331.878 45.664 331.068 46.432C330.257 47.1573 329.852 48.3733 329.852 50.08C329.852 51.3173 329.937 52.8533 330.108 54.688C330.278 56.48 330.385 57.696 330.428 58.336C330.854 62.432 331.068 65.4187 331.068 67.296C331.068 69.5573 330.492 71.456 329.34 72.992C328.23 74.4853 326.502 75.488 324.156 76V76.128C326.502 76.64 328.23 77.664 329.34 79.2C330.492 80.736 331.068 82.6347 331.068 84.896C331.068 86.7733 330.854 89.76 330.428 93.856C330.385 94.496 330.278 95.7333 330.108 97.568C329.937 99.36 329.852 100.875 329.852 102.112C329.852 103.819 330.257 105.035 331.068 105.76C331.878 106.528 333.116 106.912 334.78 106.912H337.404V111.968H333.692C330.79 111.968 328.465 111.157 326.716 109.536C325.009 107.915 324.156 105.568 324.156 102.496C324.156 100.619 324.369 97.5893 324.796 93.408C325.222 89.4827 325.436 86.7093 325.436 85.088C325.436 81.4187 323.26 79.1787 318.908 78.368V73.824ZM363.766 64.288C368.033 64.288 371.489 65.5893 374.134 68.192C376.779 70.752 378.102 74.464 378.102 79.328V100H372.342V80.16C372.342 76.6613 371.467 73.9947 369.718 72.16C367.969 70.2827 365.579 69.344 362.55 69.344C359.478 69.344 357.025 70.304 355.19 72.224C353.398 74.144 352.502 76.9387 352.502 80.608V100H346.678V64.928H352.502V69.92C353.654 68.128 355.211 66.7413 357.174 65.76C359.179 64.7787 361.377 64.288 363.766 64.288ZM385.44 82.336C385.44 78.752 386.165 75.616 387.616 72.928C389.066 70.1973 391.05 68.0853 393.568 66.592C396.128 65.0987 398.965 64.352 402.08 64.352C405.152 64.352 407.818 65.0133 410.08 66.336C412.341 67.6587 414.026 69.3227 415.136 71.328V64.928H421.024V100H415.136V93.472C413.984 95.52 412.256 97.2267 409.952 98.592C407.69 99.9147 405.045 100.576 402.016 100.576C398.901 100.576 396.085 99.808 393.568 98.272C391.05 96.736 389.066 94.5813 387.616 91.808C386.165 89.0347 385.44 85.8773 385.44 82.336ZM415.136 82.4C415.136 79.7547 414.602 77.4507 413.536 75.488C412.469 73.5253 411.018 72.032 409.184 71.008C407.392 69.9413 405.408 69.408 403.232 69.408C401.056 69.408 399.072 69.92 397.28 70.944C395.488 71.968 394.058 73.4613 392.992 75.424C391.925 77.3867 391.392 79.6907 391.392 82.336C391.392 85.024 391.925 87.3707 392.992 89.376C394.058 91.3387 395.488 92.8533 397.28 93.92C399.072 94.944 401.056 95.456 403.232 95.456C405.408 95.456 407.392 94.944 409.184 93.92C411.018 92.8533 412.469 91.3387 413.536 89.376C414.602 87.3707 415.136 85.0453 415.136 82.4ZM473.042 64.288C475.772 64.288 478.204 64.864 480.338 66.016C482.471 67.1253 484.156 68.8107 485.394 71.072C486.631 73.3333 487.25 76.0853 487.25 79.328V100H481.49V80.16C481.49 76.6613 480.615 73.9947 478.866 72.16C477.159 70.2827 474.834 69.344 471.89 69.344C468.86 69.344 466.45 70.3253 464.658 72.288C462.866 74.208 461.97 77.0027 461.97 80.672V100H456.21V80.16C456.21 76.6613 455.335 73.9947 453.586 72.16C451.879 70.2827 449.554 69.344 446.61 69.344C443.58 69.344 441.17 70.3253 439.378 72.288C437.586 74.208 436.69 77.0027 436.69 80.672V100H430.866V64.928H436.69V69.984C437.842 68.1493 439.378 66.7413 441.298 65.76C443.26 64.7787 445.415 64.288 447.762 64.288C450.706 64.288 453.308 64.9493 455.57 66.272C457.831 67.5947 459.516 69.536 460.626 72.096C461.607 69.6213 463.228 67.7013 465.49 66.336C467.751 64.9707 470.268 64.288 473.042 64.288ZM528.803 81.12C528.803 82.2293 528.739 83.4027 528.611 84.64H500.579C500.792 88.096 501.966 90.8053 504.099 92.768C506.275 94.688 508.899 95.648 511.971 95.648C514.488 95.648 516.579 95.072 518.243 93.92C519.95 92.7253 521.144 91.1467 521.827 89.184H528.099C527.16 92.5547 525.283 95.3067 522.467 97.44C519.651 99.5307 516.152 100.576 511.971 100.576C508.643 100.576 505.656 99.8293 503.011 98.336C500.408 96.8427 498.36 94.7307 496.867 92C495.374 89.2267 494.627 86.0267 494.627 82.4C494.627 78.7733 495.352 75.5947 496.803 72.864C498.254 70.1333 500.28 68.0427 502.883 66.592C505.528 65.0987 508.558 64.352 511.971 64.352C515.299 64.352 518.243 65.0773 520.803 66.528C523.363 67.9787 525.326 69.984 526.691 72.544C528.099 75.0613 528.803 77.92 528.803 81.12ZM522.787 79.904C522.787 77.6853 522.296 75.7867 521.315 74.208C520.334 72.5867 518.99 71.3707 517.283 70.56C515.619 69.7067 513.763 69.28 511.715 69.28C508.771 69.28 506.254 70.2187 504.163 72.096C502.115 73.9733 500.942 76.576 500.643 79.904H522.787ZM554.411 78.368C550.059 79.1787 547.883 81.4187 547.883 85.088C547.883 86.7093 548.096 89.4827 548.523 93.408C548.949 97.5893 549.163 100.619 549.163 102.496C549.163 105.568 548.288 107.915 546.539 109.536C544.832 111.157 542.528 111.968 539.627 111.968H535.915V106.912H538.539C540.203 106.912 541.44 106.528 542.251 105.76C543.061 105.035 543.467 103.819 543.467 102.112C543.467 100.875 543.381 99.36 543.211 97.568C543.04 95.7333 542.933 94.496 542.891 93.856C542.464 89.76 542.251 86.7733 542.251 84.896C542.251 82.6347 542.805 80.736 543.915 79.2C545.067 77.664 546.816 76.64 549.163 76.128V76C546.816 75.488 545.067 74.4853 543.915 72.992C542.805 71.456 542.251 69.5573 542.251 67.296C542.251 65.4187 542.464 62.432 542.891 58.336C542.933 57.696 543.04 56.48 543.211 54.688C543.381 52.8533 543.467 51.3173 543.467 50.08C543.467 48.3733 543.061 47.1573 542.251 46.432C541.44 45.664 540.203 45.28 538.539 45.28H535.915V40.224H539.627C542.528 40.224 544.832 41.0347 546.539 42.656C548.288 44.2773 549.163 46.624 549.163 49.696C549.163 51.5733 548.949 54.6027 548.523 58.784C548.096 62.7093 547.883 65.4827 547.883 67.104C547.883 70.7733 550.059 73.0133 554.411 73.824V78.368ZM573.605 55.392L572.901 87.392H568.037L567.333 55.392H573.605ZM570.725 100.384C569.616 100.384 568.677 100 567.909 99.232C567.141 98.464 566.757 97.5253 566.757 96.416C566.757 95.3067 567.141 94.368 567.909 93.6C568.677 92.832 569.616 92.448 570.725 92.448C571.792 92.448 572.688 92.832 573.413 93.6C574.181 94.368 574.565 95.3067 574.565 96.416C574.565 97.5253 574.181 98.464 573.413 99.232C572.688 100 571.792 100.384 570.725 100.384Z" fill="white"/>
</g>
<mask id="mask1_318_98" style="mask-type:alpha" maskUnits="userSpaceOnUse" x="85" y="320" width="669" height="127">
<rect x="85" y="320" width="669" height="127" rx="20" fill="url(#paint3_linear_318_98)"/>
</mask>
<g mask="url(#mask1_318_98)">
<g filter="url(#filter1_d_318_98)">
<rect x="85" y="320" width="669" height="127" rx="20" fill="url(#paint4_linear_318_98)"/>
</g>
<path d="M164.72 374.32C163.483 371.717 161.691 369.712 159.344 368.304C156.997 366.853 154.267 366.128 151.152 366.128C148.037 366.128 145.221 366.853 142.704 368.304C140.229 369.712 138.267 371.76 136.816 374.448C135.408 377.093 134.704 380.165 134.704 383.664C134.704 387.163 135.408 390.235 136.816 392.88C138.267 395.525 140.229 397.573 142.704 399.024C145.221 400.432 148.037 401.136 151.152 401.136C155.504 401.136 159.088 399.835 161.904 397.232C164.72 394.629 166.363 391.109 166.832 386.672H149.04V381.936H173.04V386.416C172.699 390.085 171.547 393.456 169.584 396.528C167.621 399.557 165.04 401.968 161.84 403.76C158.64 405.509 155.077 406.384 151.152 406.384C147.013 406.384 143.237 405.424 139.824 403.504C136.411 401.541 133.701 398.832 131.696 395.376C129.733 391.92 128.752 388.016 128.752 383.664C128.752 379.312 129.733 375.408 131.696 371.952C133.701 368.453 136.411 365.744 139.824 363.824C143.237 361.861 147.013 360.88 151.152 360.88C155.888 360.88 160.069 362.053 163.696 364.4C167.365 366.747 170.032 370.053 171.696 374.32H164.72ZM196.037 406.576C192.751 406.576 189.765 405.829 187.077 404.336C184.431 402.843 182.341 400.731 180.805 398C179.311 395.227 178.565 392.027 178.565 388.4C178.565 384.816 179.333 381.659 180.869 378.928C182.447 376.155 184.581 374.043 187.269 372.592C189.957 371.099 192.965 370.352 196.293 370.352C199.621 370.352 202.629 371.099 205.317 372.592C208.005 374.043 210.117 376.133 211.653 378.864C213.231 381.595 214.021 384.773 214.021 388.4C214.021 392.027 213.21 395.227 211.589 398C210.01 400.731 207.855 402.843 205.125 404.336C202.394 405.829 199.365 406.576 196.037 406.576ZM196.037 401.456C198.127 401.456 200.09 400.965 201.925 399.984C203.759 399.003 205.231 397.531 206.341 395.568C207.493 393.605 208.069 391.216 208.069 388.4C208.069 385.584 207.514 383.195 206.405 381.232C205.295 379.269 203.845 377.819 202.053 376.88C200.261 375.899 198.319 375.408 196.229 375.408C194.095 375.408 192.133 375.899 190.341 376.88C188.591 377.819 187.183 379.269 186.117 381.232C185.05 383.195 184.517 385.584 184.517 388.4C184.517 391.259 185.029 393.669 186.053 395.632C187.119 397.595 188.527 399.067 190.277 400.048C192.026 400.987 193.946 401.456 196.037 401.456ZM236.974 406.576C233.689 406.576 230.702 405.829 228.014 404.336C225.369 402.843 223.278 400.731 221.742 398C220.249 395.227 219.502 392.027 219.502 388.4C219.502 384.816 220.27 381.659 221.806 378.928C223.385 376.155 225.518 374.043 228.206 372.592C230.894 371.099 233.902 370.352 237.23 370.352C240.558 370.352 243.566 371.099 246.254 372.592C248.942 374.043 251.054 376.133 252.59 378.864C254.169 381.595 254.958 384.773 254.958 388.4C254.958 392.027 254.147 395.227 252.526 398C250.947 400.731 248.793 402.843 246.062 404.336C243.331 405.829 240.302 406.576 236.974 406.576ZM236.974 401.456C239.065 401.456 241.027 400.965 242.862 399.984C244.697 399.003 246.169 397.531 247.278 395.568C248.43 393.605 249.006 391.216 249.006 388.4C249.006 385.584 248.451 383.195 247.342 381.232C246.233 379.269 244.782 377.819 242.99 376.88C241.198 375.899 239.257 375.408 237.166 375.408C235.033 375.408 233.07 375.899 231.278 376.88C229.529 377.819 228.121 379.269 227.054 381.232C225.987 383.195 225.454 385.584 225.454 388.4C225.454 391.259 225.966 393.669 226.99 395.632C228.057 397.595 229.465 399.067 231.214 400.048C232.963 400.987 234.883 401.456 236.974 401.456ZM260.44 388.336C260.44 384.752 261.165 381.616 262.616 378.928C264.066 376.197 266.05 374.085 268.568 372.592C271.128 371.099 273.986 370.352 277.144 370.352C279.874 370.352 282.413 370.992 284.76 372.272C287.106 373.509 288.898 375.152 290.136 377.2V358.64H296.024V406H290.136V399.408C288.984 401.499 287.277 403.227 285.016 404.592C282.754 405.915 280.109 406.576 277.08 406.576C273.965 406.576 271.128 405.808 268.568 404.272C266.05 402.736 264.066 400.581 262.616 397.808C261.165 395.035 260.44 391.877 260.44 388.336ZM290.136 388.4C290.136 385.755 289.602 383.451 288.536 381.488C287.469 379.525 286.018 378.032 284.184 377.008C282.392 375.941 280.408 375.408 278.232 375.408C276.056 375.408 274.072 375.92 272.28 376.944C270.488 377.968 269.058 379.461 267.992 381.424C266.925 383.387 266.392 385.691 266.392 388.336C266.392 391.024 266.925 393.371 267.992 395.376C269.058 397.339 270.488 398.853 272.28 399.92C274.072 400.944 276.056 401.456 278.232 401.456C280.408 401.456 282.392 400.944 284.184 399.92C286.018 398.853 287.469 397.339 288.536 395.376C289.602 393.371 290.136 391.045 290.136 388.4ZM311.69 377.456C312.884 375.365 314.634 373.659 316.938 372.336C319.242 371.013 321.866 370.352 324.81 370.352C327.967 370.352 330.804 371.099 333.322 372.592C335.839 374.085 337.823 376.197 339.274 378.928C340.724 381.616 341.45 384.752 341.45 388.336C341.45 391.877 340.724 395.035 339.274 397.808C337.823 400.581 335.817 402.736 333.257 404.272C330.74 405.808 327.924 406.576 324.81 406.576C321.78 406.576 319.114 405.915 316.81 404.592C314.548 403.269 312.842 401.584 311.69 399.536V406H305.866V358.64H311.69V377.456ZM335.498 388.336C335.498 385.691 334.964 383.387 333.898 381.424C332.831 379.461 331.38 377.968 329.546 376.944C327.754 375.92 325.77 375.408 323.594 375.408C321.46 375.408 319.476 375.941 317.642 377.008C315.85 378.032 314.399 379.547 313.29 381.552C312.223 383.515 311.69 385.797 311.69 388.4C311.69 391.045 312.223 393.371 313.29 395.376C314.399 397.339 315.85 398.853 317.642 399.92C319.476 400.944 321.46 401.456 323.594 401.456C325.77 401.456 327.754 400.944 329.546 399.92C331.38 398.853 332.831 397.339 333.898 395.376C334.964 393.371 335.498 391.024 335.498 388.336ZM379.324 370.928L358.204 422.512H352.188L359.1 405.616L344.956 370.928H351.42L362.428 399.344L373.308 370.928H379.324ZM417.178 387.12C417.178 388.229 417.114 389.403 416.986 390.64H388.954C389.167 394.096 390.341 396.805 392.474 398.768C394.65 400.688 397.274 401.648 400.346 401.648C402.863 401.648 404.954 401.072 406.618 399.92C408.325 398.725 409.519 397.147 410.202 395.184H416.474C415.535 398.555 413.658 401.307 410.842 403.44C408.026 405.531 404.527 406.576 400.346 406.576C397.018 406.576 394.031 405.829 391.386 404.336C388.783 402.843 386.735 400.731 385.242 398C383.749 395.227 383.002 392.027 383.002 388.4C383.002 384.773 383.727 381.595 385.178 378.864C386.629 376.133 388.655 374.043 391.258 372.592C393.903 371.099 396.933 370.352 400.346 370.352C403.674 370.352 406.618 371.077 409.178 372.528C411.738 373.979 413.701 375.984 415.066 378.544C416.474 381.061 417.178 383.92 417.178 387.12ZM411.162 385.904C411.162 383.685 410.671 381.787 409.69 380.208C408.709 378.587 407.365 377.371 405.658 376.56C403.994 375.707 402.138 375.28 400.09 375.28C397.146 375.28 394.629 376.219 392.538 378.096C390.49 379.973 389.317 382.576 389.018 385.904H411.162ZM430.882 397.936L423.714 415.152H419.809L424.482 397.936H430.882ZM456.408 379.824C460.76 379.013 462.936 376.773 462.936 373.104C462.936 371.483 462.722 368.709 462.296 364.784C461.869 360.603 461.656 357.573 461.656 355.696C461.656 352.624 462.509 350.277 464.216 348.656C465.965 347.035 468.29 346.224 471.192 346.224H474.904V351.28H472.28C470.616 351.28 469.378 351.664 468.568 352.432C467.757 353.157 467.352 354.373 467.352 356.08C467.352 357.317 467.437 358.853 467.608 360.688C467.778 362.48 467.885 363.696 467.928 364.336C468.354 368.432 468.568 371.419 468.568 373.296C468.568 375.557 467.992 377.456 466.84 378.992C465.73 380.485 464.002 381.488 461.656 382V382.128C464.002 382.64 465.73 383.664 466.84 385.2C467.992 386.736 468.568 388.635 468.568 390.896C468.568 392.773 468.354 395.76 467.928 399.856C467.885 400.496 467.778 401.733 467.608 403.568C467.437 405.36 467.352 406.875 467.352 408.112C467.352 409.819 467.757 411.035 468.568 411.76C469.378 412.528 470.616 412.912 472.28 412.912H474.904V417.968H471.192C468.29 417.968 465.965 417.157 464.216 415.536C462.509 413.915 461.656 411.568 461.656 408.496C461.656 406.619 461.869 403.589 462.296 399.408C462.722 395.483 462.936 392.709 462.936 391.088C462.936 387.419 460.76 385.179 456.408 384.368V379.824ZM501.266 370.288C505.533 370.288 508.989 371.589 511.634 374.192C514.279 376.752 515.602 380.464 515.602 385.328V406H509.842V386.16C509.842 382.661 508.967 379.995 507.218 378.16C505.469 376.283 503.079 375.344 500.05 375.344C496.978 375.344 494.525 376.304 492.69 378.224C490.898 380.144 490.002 382.939 490.002 386.608V406H484.178V370.928H490.002V375.92C491.154 374.128 492.711 372.741 494.674 371.76C496.679 370.779 498.877 370.288 501.266 370.288ZM522.94 388.336C522.94 384.752 523.665 381.616 525.116 378.928C526.566 376.197 528.55 374.085 531.068 372.592C533.628 371.099 536.465 370.352 539.58 370.352C542.652 370.352 545.318 371.013 547.58 372.336C549.841 373.659 551.526 375.323 552.636 377.328V370.928H558.524V406H552.636V399.472C551.484 401.52 549.756 403.227 547.452 404.592C545.19 405.915 542.545 406.576 539.516 406.576C536.401 406.576 533.585 405.808 531.068 404.272C528.55 402.736 526.566 400.581 525.116 397.808C523.665 395.035 522.94 391.877 522.94 388.336ZM552.636 388.4C552.636 385.755 552.102 383.451 551.036 381.488C549.969 379.525 548.518 378.032 546.684 377.008C544.892 375.941 542.908 375.408 540.732 375.408C538.556 375.408 536.572 375.92 534.78 376.944C532.988 377.968 531.558 379.461 530.492 381.424C529.425 383.387 528.892 385.691 528.892 388.336C528.892 391.024 529.425 393.371 530.492 395.376C531.558 397.339 532.988 398.853 534.78 399.92C536.572 400.944 538.556 401.456 540.732 401.456C542.908 401.456 544.892 400.944 546.684 399.92C548.518 398.853 549.969 397.339 551.036 395.376C552.102 393.371 552.636 391.045 552.636 388.4ZM610.542 370.288C613.272 370.288 615.704 370.864 617.838 372.016C619.971 373.125 621.656 374.811 622.894 377.072C624.131 379.333 624.75 382.085 624.75 385.328V406H618.99V386.16C618.99 382.661 618.115 379.995 616.366 378.16C614.659 376.283 612.334 375.344 609.39 375.344C606.36 375.344 603.95 376.325 602.158 378.288C600.366 380.208 599.47 383.003 599.47 386.672V406H593.71V386.16C593.71 382.661 592.835 379.995 591.086 378.16C589.379 376.283 587.054 375.344 584.11 375.344C581.08 375.344 578.67 376.325 576.878 378.288C575.086 380.208 574.19 383.003 574.19 386.672V406H568.366V370.928H574.19V375.984C575.342 374.149 576.878 372.741 578.798 371.76C580.76 370.779 582.915 370.288 585.262 370.288C588.206 370.288 590.808 370.949 593.07 372.272C595.331 373.595 597.016 375.536 598.126 378.096C599.107 375.621 600.728 373.701 602.99 372.336C605.251 370.971 607.768 370.288 610.542 370.288ZM666.303 387.12C666.303 388.229 666.239 389.403 666.111 390.64H638.079C638.292 394.096 639.466 396.805 641.599 398.768C643.775 400.688 646.399 401.648 649.471 401.648C651.988 401.648 654.079 401.072 655.743 399.92C657.45 398.725 658.644 397.147 659.327 395.184H665.599C664.66 398.555 662.783 401.307 659.967 403.44C657.151 405.531 653.652 406.576 649.471 406.576C646.143 406.576 643.156 405.829 640.511 404.336C637.908 402.843 635.86 400.731 634.367 398C632.874 395.227 632.127 392.027 632.127 388.4C632.127 384.773 632.852 381.595 634.303 378.864C635.754 376.133 637.78 374.043 640.383 372.592C643.028 371.099 646.058 370.352 649.471 370.352C652.799 370.352 655.743 371.077 658.303 372.528C660.863 373.979 662.826 375.984 664.191 378.544C665.599 381.061 666.303 383.92 666.303 387.12ZM660.287 385.904C660.287 383.685 659.796 381.787 658.815 380.208C657.834 378.587 656.49 377.371 654.783 376.56C653.119 375.707 651.263 375.28 649.215 375.28C646.271 375.28 643.754 376.219 641.663 378.096C639.615 379.973 638.442 382.576 638.143 385.904H660.287ZM691.911 384.368C687.559 385.179 685.383 387.419 685.383 391.088C685.383 392.709 685.596 395.483 686.023 399.408C686.449 403.589 686.663 406.619 686.663 408.496C686.663 411.568 685.788 413.915 684.039 415.536C682.332 417.157 680.028 417.968 677.127 417.968H673.415V412.912H676.039C677.703 412.912 678.94 412.528 679.751 411.76C680.561 411.035 680.967 409.819 680.967 408.112C680.967 406.875 680.881 405.36 680.711 403.568C680.54 401.733 680.433 400.496 680.391 399.856C679.964 395.76 679.751 392.773 679.751 390.896C679.751 388.635 680.305 386.736 681.415 385.2C682.567 383.664 684.316 382.64 686.663 382.128V382C684.316 381.488 682.567 380.485 681.415 378.992C680.305 377.456 679.751 375.557 679.751 373.296C679.751 371.419 679.964 368.432 680.391 364.336C680.433 363.696 680.54 362.48 680.711 360.688C680.881 358.853 680.967 357.317 680.967 356.08C680.967 354.373 680.561 353.157 679.751 352.432C678.94 351.664 677.703 351.28 676.039 351.28H673.415V346.224H677.127C680.028 346.224 682.332 347.035 684.039 348.656C685.788 350.277 686.663 352.624 686.663 355.696C686.663 357.573 686.449 360.603 686.023 364.784C685.596 368.709 685.383 371.483 685.383 373.104C685.383 376.773 687.559 379.013 691.911 379.824V384.368ZM711.105 361.392L710.401 393.392H705.537L704.833 361.392H711.105ZM708.225 406.384C707.116 406.384 706.177 406 705.409 405.232C704.641 404.464 704.257 403.525 704.257 402.416C704.257 401.307 704.641 400.368 705.409 399.6C706.177 398.832 707.116 398.448 708.225 398.448C709.292 398.448 710.188 398.832 710.913 399.6C711.681 400.368 712.065 401.307 712.065 402.416C712.065 403.525 711.681 404.464 710.913 405.232C710.188 406 709.292 406.384 708.225 406.384Z" fill="white"/>
</g>
<g filter="url(#filter2_d_318_98)">
<rect x="85" y="167" width="669" height="127" rx="20" fill="url(#paint5_linear_318_98)"/>
</g>
<path d="M176.176 208.712V253H170.352V219.976L155.632 253H151.536L136.752 219.912V253H130.928V208.712H137.2L153.584 245.32L169.968 208.712H176.176ZM216.261 217.928L195.141 269.512H189.125L196.037 252.616L181.893 217.928H188.357L199.365 246.344L210.245 217.928H216.261ZM246.282 222.728V243.4C246.282 245.107 246.645 246.323 247.37 247.048C248.095 247.731 249.354 248.072 251.146 248.072H255.434V253H250.186C246.943 253 244.511 252.253 242.89 250.76C241.269 249.267 240.458 246.813 240.458 243.4V222.728H235.914V217.928H240.458V209.096H246.282V217.928H255.434V222.728H246.282ZM268.315 223.624C269.339 221.619 270.789 220.061 272.667 218.952C274.587 217.843 276.912 217.288 279.643 217.288V223.304H278.107C271.579 223.304 268.315 226.845 268.315 233.928V253H262.491V217.928H268.315V223.624ZM284.19 235.336C284.19 231.752 284.915 228.616 286.366 225.928C287.816 223.197 289.8 221.085 292.318 219.592C294.878 218.099 297.715 217.352 300.83 217.352C303.902 217.352 306.568 218.013 308.83 219.336C311.091 220.659 312.776 222.323 313.886 224.328V217.928H319.774V253H313.886V246.472C312.734 248.52 311.006 250.227 308.702 251.592C306.44 252.915 303.795 253.576 300.766 253.576C297.651 253.576 294.835 252.808 292.318 251.272C289.8 249.736 287.816 247.581 286.366 244.808C284.915 242.035 284.19 238.877 284.19 235.336ZM313.886 235.4C313.886 232.755 313.352 230.451 312.286 228.488C311.219 226.525 309.768 225.032 307.934 224.008C306.142 222.941 304.158 222.408 301.982 222.408C299.806 222.408 297.822 222.92 296.03 223.944C294.238 224.968 292.808 226.461 291.742 228.424C290.675 230.387 290.142 232.691 290.142 235.336C290.142 238.024 290.675 240.371 291.742 242.376C292.808 244.339 294.238 245.853 296.03 246.92C297.822 247.944 299.806 248.456 301.982 248.456C304.158 248.456 306.142 247.944 307.934 246.92C309.768 245.853 311.219 244.339 312.286 242.376C313.352 240.371 313.886 238.045 313.886 235.4ZM346.704 217.288C350.97 217.288 354.426 218.589 357.072 221.192C359.717 223.752 361.04 227.464 361.04 232.328V253H355.28V233.16C355.28 229.661 354.405 226.995 352.656 225.16C350.906 223.283 348.517 222.344 345.488 222.344C342.416 222.344 339.962 223.304 338.128 225.224C336.336 227.144 335.44 229.939 335.44 233.608V253H329.616V217.928H335.44V222.92C336.592 221.128 338.149 219.741 340.112 218.76C342.117 217.779 344.314 217.288 346.704 217.288ZM382.969 253.576C380.281 253.576 377.87 253.128 375.737 252.232C373.604 251.293 371.918 250.013 370.681 248.392C369.444 246.728 368.761 244.829 368.633 242.696H374.649C374.82 244.445 375.63 245.875 377.081 246.984C378.574 248.093 380.516 248.648 382.905 248.648C385.124 248.648 386.873 248.157 388.153 247.176C389.433 246.195 390.073 244.957 390.073 243.464C390.073 241.928 389.39 240.797 388.025 240.072C386.66 239.304 384.548 238.557 381.689 237.832C379.086 237.149 376.953 236.467 375.289 235.784C373.668 235.059 372.26 234.013 371.065 232.648C369.913 231.24 369.337 229.405 369.337 227.144C369.337 225.352 369.87 223.709 370.937 222.216C372.004 220.723 373.518 219.549 375.481 218.696C377.444 217.8 379.684 217.352 382.201 217.352C386.084 217.352 389.22 218.333 391.609 220.296C393.998 222.259 395.278 224.947 395.449 228.36H389.625C389.497 226.525 388.75 225.053 387.385 223.944C386.062 222.835 384.27 222.28 382.009 222.28C379.918 222.28 378.254 222.728 377.017 223.624C375.78 224.52 375.161 225.693 375.161 227.144C375.161 228.296 375.524 229.256 376.249 230.024C377.017 230.749 377.956 231.347 379.065 231.816C380.217 232.243 381.796 232.733 383.801 233.288C386.318 233.971 388.366 234.653 389.945 235.336C391.524 235.976 392.868 236.957 393.977 238.28C395.129 239.603 395.726 241.331 395.769 243.464C395.769 245.384 395.236 247.112 394.169 248.648C393.102 250.184 391.588 251.4 389.625 252.296C387.705 253.149 385.486 253.576 382.969 253.576ZM409.815 205.64V253H403.991V205.64H409.815ZM417.565 235.336C417.565 231.752 418.29 228.616 419.741 225.928C421.191 223.197 423.175 221.085 425.693 219.592C428.253 218.099 431.09 217.352 434.205 217.352C437.277 217.352 439.943 218.013 442.205 219.336C444.466 220.659 446.151 222.323 447.261 224.328V217.928H453.149V253H447.261V246.472C446.109 248.52 444.381 250.227 442.077 251.592C439.815 252.915 437.17 253.576 434.141 253.576C431.026 253.576 428.21 252.808 425.693 251.272C423.175 249.736 421.191 247.581 419.741 244.808C418.29 242.035 417.565 238.877 417.565 235.336ZM447.261 235.4C447.261 232.755 446.727 230.451 445.661 228.488C444.594 226.525 443.143 225.032 441.309 224.008C439.517 222.941 437.533 222.408 435.357 222.408C433.181 222.408 431.197 222.92 429.405 223.944C427.613 224.968 426.183 226.461 425.117 228.424C424.05 230.387 423.517 232.691 423.517 235.336C423.517 238.024 424.05 240.371 425.117 242.376C426.183 244.339 427.613 245.853 429.405 246.92C431.197 247.944 433.181 248.456 435.357 248.456C437.533 248.456 439.517 247.944 441.309 246.92C443.143 245.853 444.594 244.339 445.661 242.376C446.727 240.371 447.261 238.045 447.261 235.4ZM470.095 222.728V243.4C470.095 245.107 470.457 246.323 471.183 247.048C471.908 247.731 473.167 248.072 474.958 248.072H479.247V253H473.999C470.756 253 468.324 252.253 466.703 250.76C465.081 249.267 464.271 246.813 464.271 243.4V222.728H459.727V217.928H464.271V209.096H470.095V217.928H479.247V222.728H470.095ZM489.311 212.232C488.202 212.232 487.263 211.848 486.495 211.08C485.727 210.312 485.343 209.373 485.343 208.264C485.343 207.155 485.727 206.216 486.495 205.448C487.263 204.68 488.202 204.296 489.311 204.296C490.378 204.296 491.274 204.68 491.999 205.448C492.767 206.216 493.151 207.155 493.151 208.264C493.151 209.373 492.767 210.312 491.999 211.08C491.274 211.848 490.378 212.232 489.311 212.232ZM492.127 217.928V253H486.303V217.928H492.127ZM517.349 253.576C514.064 253.576 511.077 252.829 508.389 251.336C505.744 249.843 503.653 247.731 502.117 245C500.624 242.227 499.877 239.027 499.877 235.4C499.877 231.816 500.645 228.659 502.181 225.928C503.76 223.155 505.893 221.043 508.581 219.592C511.269 218.099 514.277 217.352 517.605 217.352C520.933 217.352 523.941 218.099 526.629 219.592C529.317 221.043 531.429 223.133 532.965 225.864C534.544 228.595 535.333 231.773 535.333 235.4C535.333 239.027 534.522 242.227 532.901 245C531.322 247.731 529.168 249.843 526.437 251.336C523.706 252.829 520.677 253.576 517.349 253.576ZM517.349 248.456C519.44 248.456 521.402 247.965 523.237 246.984C525.072 246.003 526.544 244.531 527.653 242.568C528.805 240.605 529.381 238.216 529.381 235.4C529.381 232.584 528.826 230.195 527.717 228.232C526.608 226.269 525.157 224.819 523.365 223.88C521.573 222.899 519.632 222.408 517.541 222.408C515.408 222.408 513.445 222.899 511.653 223.88C509.904 224.819 508.496 226.269 507.429 228.232C506.362 230.195 505.829 232.584 505.829 235.4C505.829 238.259 506.341 240.669 507.365 242.632C508.432 244.595 509.84 246.067 511.589 247.048C513.338 247.987 515.258 248.456 517.349 248.456ZM560.079 217.288C564.345 217.288 567.801 218.589 570.447 221.192C573.092 223.752 574.415 227.464 574.415 232.328V253H568.655V233.16C568.655 229.661 567.78 226.995 566.031 225.16C564.281 223.283 561.892 222.344 558.863 222.344C555.791 222.344 553.337 223.304 551.503 225.224C549.711 227.144 548.815 229.939 548.815 233.608V253H542.991V217.928H548.815V222.92C549.967 221.128 551.524 219.741 553.487 218.76C555.492 217.779 557.689 217.288 560.079 217.288Z" fill="white"/>
<path d="M624.375 258.3C624.375 259.334 624.783 260.326 625.51 261.058C626.237 261.789 627.222 262.2 628.25 262.2H636V270H626.312C624.181 270 620.5 268.245 620.5 266.1C620.5 268.245 616.819 270 614.688 270H605V262.2H612.75C613.778 262.2 614.763 261.789 615.49 261.058C616.217 260.326 616.625 259.334 616.625 258.3V203.7C616.625 202.666 616.217 201.674 615.49 200.942C614.763 200.211 613.778 199.8 612.75 199.8H605V192H614.688C616.819 192 620.5 193.755 620.5 195.9C620.5 193.755 624.181 192 626.312 192H636V199.8H628.25C627.222 199.8 626.237 200.211 625.51 200.942C624.783 201.674 624.375 202.666 624.375 203.7V258.3Z" fill="white"/>
</g>
<defs>
<filter id="filter0_d_318_98" x="35" y="-36" width="769" height="227" filterUnits="userSpaceOnUse" color-interpolation-filters="sRGB">
<feFlood flood-opacity="0" result="BackgroundImageFix"/>
<feColorMatrix in="SourceAlpha" type="matrix" values="0 0 0 0 0 0 0 0 0 0 0 0 0 0 0 0 0 0 127 0" result="hardAlpha"/>
<feOffset/>
<feGaussianBlur stdDeviation="25"/>
<feComposite in2="hardAlpha" operator="out"/>
<feColorMatrix type="matrix" values="0 0 0 0 0 0 0 0 0 0 0 0 0 0 0 0 0 0 0.25 0"/>
<feBlend mode="normal" in2="BackgroundImageFix" result="effect1_dropShadow_318_98"/>
<feBlend mode="normal" in="SourceGraphic" in2="effect1_dropShadow_318_98" result="shape"/>
</filter>
<filter id="filter1_d_318_98" x="35" y="270" width="769" height="227" filterUnits="userSpaceOnUse" color-interpolation-filters="sRGB">
<feFlood flood-opacity="0" result="BackgroundImageFix"/>
<feColorMatrix in="SourceAlpha" type="matrix" values="0 0 0 0 0 0 0 0 0 0 0 0 0 0 0 0 0 0 127 0" result="hardAlpha"/>
<feOffset/>
<feGaussianBlur stdDeviation="25"/>
<feComposite in2="hardAlpha" operator="out"/>
<feColorMatrix type="matrix" values="0 0 0 0 0 0 0 0 0 0 0 0 0 0 0 0 0 0 0.25 0"/>
<feBlend mode="normal" in2="BackgroundImageFix" result="effect1_dropShadow_318_98"/>
<feBlend mode="normal" in="SourceGraphic" in2="effect1_dropShadow_318_98" result="shape"/>
</filter>
<filter id="filter2_d_318_98" x="35" y="117" width="769" height="227" filterUnits="userSpaceOnUse" color-interpolation-filters="sRGB">
<feFlood flood-opacity="0" result="BackgroundImageFix"/>
<feColorMatrix in="SourceAlpha" type="matrix" values="0 0 0 0 0 0 0 0 0 0 0 0 0 0 0 0 0 0 127 0" result="hardAlpha"/>
<feOffset/>
<feGaussianBlur stdDeviation="25"/>
<feComposite in2="hardAlpha" operator="out"/>
<feColorMatrix type="matrix" values="0 0 0 0 0 0 0 0 0 0 0 0 0 0 0 0 0 0 0.25 0"/>
<feBlend mode="normal" in2="BackgroundImageFix" result="effect1_dropShadow_318_98"/>
<feBlend mode="normal" in="SourceGraphic" in2="effect1_dropShadow_318_98" result="shape"/>
</filter>
<linearGradient id="paint0_linear_318_98" x1="114" y1="48.9999" x2="839" y2="472" gradientUnits="userSpaceOnUse">
<stop stop-color="white" stop-opacity="0.1"/>
<stop offset="0.597656" stop-color="white" stop-opacity="0.2"/>
<stop offset="1" stop-color="white" stop-opacity="0.1"/>
</linearGradient>
<linearGradient id="paint1_linear_318_98" x1="420" y1="141" x2="420" y2="44.5" gradientUnits="userSpaceOnUse">
<stop stop-opacity="0.5"/>
<stop offset="1" stop-opacity="0"/>
</linearGradient>
<linearGradient id="paint2_linear_318_98" x1="754" y1="141" x2="85" y2="14" gradientUnits="userSpaceOnUse">
<stop/>
<stop offset="1" stop-color="#4F4F4F"/>
</linearGradient>
<linearGradient id="paint3_linear_318_98" x1="420" y1="410.5" x2="420" y2="320" gradientUnits="userSpaceOnUse">
<stop stop-opacity="0"/>
<stop offset="1" stop-opacity="0.5"/>
</linearGradient>
<linearGradient id="paint4_linear_318_98" x1="754" y1="447" x2="85" y2="320" gradientUnits="userSpaceOnUse">
<stop/>
<stop offset="1" stop-color="#4A4A4A"/>
</linearGradient>
<linearGradient id="paint5_linear_318_98" x1="754" y1="294" x2="85" y2="167" gradientUnits="userSpaceOnUse">
<stop/>
<stop offset="1" stop-color="#2F2F2F"/>
</linearGradient>
<clipPath id="clip0_318_98">
<rect width="839" height="461" fill="white"/>
</clipPath>
</defs>
</svg>
